<?xml version="1.0" encoding="UTF-8"?>
<!DOCTYPE svg  PUBLIC '-//W3C//DTD SVG 1.0//EN'  'http://www.w3.org/TR/2001/REC-SVG-20010904/DTD/svg10.dtd'>
<svg enable-background="new 0 0 733.46 359.68" version="1.0" viewBox="0 0 733.46 359.68" xml:space="preserve" xmlns="http://www.w3.org/2000/svg" xmlns:xlink="http://www.w3.org/1999/xlink">
	<g opacity=".42">
		<path d="m710.72 192.61c-5.279-16.191-22.711-27.181-39.179-24.701 4.815-16.028 9.677-32.378 9.458-49.148s-6.358-34.336-19.661-44.088c-2.559-1.876-5.471-3.584-6.87-6.474-1.329-2.744-1.01-5.976-0.936-9.039 0.4-16.544-7.901-33.043-21.279-42.295-13.377-9.252-31.402-10.959-46.205-4.376-2.528 1.124-5.058 2.496-7.811 2.601-3.298 0.127-6.365-1.575-9.29-3.143-16.771-8.994-36.288-15.204-54.553-10.12-18.264 5.084-33.426 24.915-28.202 43.571-2.267-15.805-20.445-25.644-35.603-21.974-15.158 3.671-26.389 17.653-31.122 32.873-11.874-13.564-26.629-25.332-43.953-29.402s-37.437 1.006-47.998 15.668c-10.016-19.258-31.743-31.401-52.95-29.592s-40.68 17.466-47.457 38.157c-15.776-18.36-43.143-25.1-65.326-16.089s-37.631 33.142-36.874 57.602c-20.111-6.177-43.871 5.364-51.954 25.237s0.636 45.312 19.064 55.626c-14.002 2.397-28.154 7.56-37.922 18.125-9.768 10.564-13.946 27.47-6.966 40.149-24.622 0.938-46.539 23.721-47.123 48.986-0.038 1.646 0.087 3.496 1.281 4.597 0.966 0.89 2.363 1.033 3.658 1.132 206.94 15.82 414.71 20.025 622.1 12.591 25.759-0.923 52.017-2.126 76.169-11.358 12.052-4.606 24.227-12.12 28.856-24.428 4.628-12.308-2.714-29.408-15.569-29.8 8.026-3.882 13.153-13.286 12.175-22.331-0.978-9.046-7.988-17.07-16.648-19.054" fill="#fff"/>
	</g>
	<path d="m60.108 231.52c4.674-15.199 20.112-25.516 34.695-23.188-4.264-15.046-8.57-30.394-8.376-46.137 0.194-15.742 5.63-32.232 17.411-41.387 2.266-1.761 4.844-3.365 6.084-6.077 1.177-2.576 0.894-5.61 0.829-8.486-0.354-15.53 6.997-31.019 18.844-39.704 11.846-8.685 27.809-10.287 40.917-4.108 2.239 1.055 4.479 2.343 6.917 2.442 2.921 0.119 5.636-1.478 8.227-2.951 14.851-8.443 32.135-14.273 48.309-9.5 16.174 4.772 29.6 23.388 24.974 40.902 2.008-14.837 18.105-24.073 31.529-20.627 13.423 3.446 23.369 16.572 27.561 30.859 10.515-12.733 23.581-23.78 38.922-27.601s33.153 0.945 42.505 14.708c8.87-18.079 28.11-29.477 46.89-27.779s36.024 16.396 42.026 35.819c13.97-17.235 38.205-23.562 57.85-15.103 19.644 8.459 33.324 31.112 32.654 54.073 17.809-5.799 38.85 5.036 46.008 23.691s-0.563 42.536-16.882 52.218c12.399 2.251 24.931 7.097 33.582 17.014 8.65 9.917 12.35 25.787 6.168 37.689 21.804 0.88 41.213 22.268 41.73 45.985 0.034 1.545-0.077 3.282-1.135 4.315-0.855 0.836-2.093 0.97-3.24 1.063-183.25 14.85-367.25 18.798-550.9 11.819-22.811-0.867-46.064-1.996-67.452-10.662-10.672-4.324-21.455-11.378-25.553-22.931-4.099-11.554 2.403-27.606 13.787-27.975-7.107-3.644-11.647-12.472-10.782-20.963 0.866-8.492 7.074-16.024 14.743-17.887" fill="#fff"/>
	<path d="m12.658 339.68c357.99-180.66 684.67 6 684.67 6v14h-684.67" fill="#8EC641"/>
	<path d="m214.68 286.08c1.705 6.646-12.229 13.534-32.144 19.575-19.915 6.04-38.269 8.945-39.974 2.299s13.877-13.39 33.792-19.43 36.621-9.09 38.326-2.444z" fill="#010101" opacity=".13"/>
	<path d="m302.08 291.72c0.357 6.889-14.61 10.375-35.252 11.641s-39.143-0.168-39.5-7.056c-0.357-6.889 16.191-9.85 36.833-11.116 20.643-1.267 37.562-0.358 37.919 6.531z" fill="#010101" opacity=".13"/>
				<path d="m246.84 195.46s-2.773 15.249-24.614 23.173l-2.401-3.905s15.486-7.829 20.322-21.154l6.693 1.886z" fill="#FCD3C0"/>
			<path d="m223.64 217.49c-0.391 1.54-1.671 3.45-3.574 3.533s-3.248-1.363-3.317-3.233 1.418-3.453 3.321-3.536 4.029 1.432 3.57 3.236z" fill="#FCD3C0"/>
				<path d="m219.44 220.01c-0.791 0.762-2.363 1.541-3.403 1.157-0.607-0.224-0.827 0.831-0.226 1.054 1.417 0.524 3.302-0.458 4.36-1.477 0.48-0.463-0.255-1.192-0.731-0.734z" fill="#FCD3C0"/>
				<path d="m217.68 218.75c-0.445 0.1-0.764 0.454-1.193 0.587-0.453 0.14-0.97 0.156-1.437 0.132-0.639-0.033-0.596 1.048 0.04 1.081 0.511 0.026 1.031-0.027 1.532-0.141 0.5-0.113 0.874-0.519 1.36-0.628 0.626-0.141 0.321-1.171-0.302-1.031z" fill="#FCD3C0"/>
				<path d="m217.66 217.3c-0.476-0.012-0.882 0.156-1.333 0.29-0.573 0.17-1.151 0.218-1.742 0.138-0.63-0.085-0.861 0.968-0.226 1.054 0.574 0.078 1.13 0.087 1.701-0.021 0.551-0.105 1.076-0.394 1.639-0.38 0.641 0.016 0.599-1.065-0.039-1.081z" fill="#FCD3C0"/>
				<path d="m217.46 215.76c-1.025 0.13-2.051 0.196-3.083 0.199-0.739 2e-3 -0.692 1.249 0.046 1.247 1.032-2e-3 2.058-0.068 3.083-0.199 0.729-0.092 0.689-1.34-0.046-1.247z" fill="#FCD3C0"/>
				<path d="m221.2 213.86c-1.171-1.371-3.712-0.615-5.158-0.288-0.875 0.198-0.448 1.64 0.424 1.443 0.894-0.202 3.066-0.889 3.79-0.042 0.61 0.715 1.551-0.402 0.944-1.113z" fill="#FCD3C0"/>
				<path d="m279.32 193.1s3.884 14.959 26.237 20.962l2.106-4.101s-16.011-6.46-21.811-19.322l-6.532 2.461z" fill="#FCD3C0"/>
			<path d="m304.08 213.05c0.503 1.501 1.919 3.294 3.822 3.211s3.138-1.64 3.069-3.511-1.667-3.319-3.57-3.236-3.911 1.778-3.321 3.536z" fill="#FCD3C0"/>
				<path d="m307.77 215.99c1.13 0.925 3.081 1.739 4.455 1.094 0.582-0.273 0.287-1.307-0.303-1.031-1.008 0.473-2.634-0.167-3.477-0.858-0.507-0.415-1.187 0.376-0.675 0.795z" fill="#FCD3C0"/>
				<path d="m309.88 214.84c0.494 0.067 0.895 0.438 1.402 0.508 0.508 0.07 1.03 0.078 1.538 7e-3 0.63-0.088 0.596-1.169-0.04-1.081-0.464 0.065-0.98 0.094-1.442-7e-3 -0.437-0.095-0.781-0.42-1.232-0.481-0.63-0.084-0.861 0.969-0.226 1.054z" fill="#FCD3C0"/>
				<path d="m310.06 213.42c0.56-0.063 1.105 0.18 1.662 0.236 0.578 0.059 1.131 1e-3 1.698-0.126 0.625-0.14 0.32-1.17-0.303-1.031-0.582 0.131-1.164 0.138-1.746 0.013-0.456-0.097-0.88-0.226-1.35-0.173-0.635 0.072-0.6 1.153 0.039 1.081z" fill="#FCD3C0"/>
				<path d="m310.14 212.04c1.031 0.041 2.059 0.017 3.088-0.07 0.734-0.062 0.692-1.309-0.046-1.247-1.029 0.087-2.057 0.11-3.088 0.07-0.738-0.029-0.688 1.218 0.046 1.247z" fill="#FCD3C0"/>
				<path d="m307.26 210.24c0.659-0.907 2.875-0.411 3.781-0.287 0.882 0.12 1.205-1.354 0.316-1.475-1.466-0.2-4.054-0.733-5.12 0.735-0.553 0.761 0.466 1.793 1.023 1.027z" fill="#FCD3C0"/>
			<path d="m270.56 272.99s8.845 6.13 5.116 9.193c-2.833 2.327-8.873-2.562-10.454-7.471-0.712-2.21 0.149-2.827 0.55-3.659 1.238-2.572 2.259-0.23 2.259-0.23l2.529 2.167z" fill="#939598"/>
			<path d="m271.66 271.62s6.946 6.598 4.85 9.715c-2.095 3.117-8.607-3.084-10.188-7.993s2.809-3.89 2.809-3.89l2.529 2.168z" fill="#E7E7E7"/>
			<path d="m282.7 246.93s-6.734 18.648-11.884 25.394c0 0-0.51 0.884-1.64 0.548s-1.61-1.29-1.61-1.29 4.644-16.746 5.612-24.111l9.522-0.541z" fill="#FCD3C0"/>
				<path d="m274.82 278.08c-1.096-0.195-2.165 0.085-3.063 0.792-0.519 0.408-1.088-0.479-0.568-0.888 1.102-0.868 2.454-1.21 3.795-0.971 0.632 0.113 0.468 1.18-0.164 1.067z" fill="#fff"/>
				<path d="m273.84 276.33c-1.274-0.387-2.409 0.3-3.443 1.05-0.532 0.385-1.103-0.5-0.568-0.888 1.233-0.894 2.658-1.689 4.174-1.229 0.612 0.186 0.453 1.254-0.163 1.067z" fill="#fff"/>
				<path d="m272.83 274.77c-1.429-0.295-2.421 0.454-3.618 1.163-0.556 0.329-1.131-0.554-0.568-0.888 1.433-0.849 2.644-1.695 4.35-1.342 0.628 0.13 0.466 1.197-0.164 1.067z" fill="#fff"/>
			<path d="m269.18 272.87c-1.13-0.336-1.61-1.29-1.61-1.29s0.589-2.124 1.39-5.187c2.052 1.82 3.539 2.053 4.388 1.957-0.86 1.541-1.714 2.906-2.528 3.973-1e-3 -1e-3 -0.511 0.883-1.64 0.547z" fill="#BDBEC0"/>
			<path d="m249.53 273.9s8.845 6.13 5.116 9.193c-2.833 2.327-8.873-2.562-10.454-7.471-0.712-2.21 0.149-2.827 0.55-3.659 1.238-2.572 2.259-0.23 2.259-0.23l2.529 2.167z" fill="#939598"/>
			<path d="m250.62 272.53s6.946 6.598 4.85 9.715c-2.095 3.117-8.608-3.084-10.188-7.993-1.581-4.909 2.809-3.89 2.809-3.89l2.529 2.168z" fill="#E7E7E7"/>
			<path d="m261.67 247.85s-6.734 18.648-11.884 25.394c0 0-0.51 0.884-1.64 0.548s-1.61-1.29-1.61-1.29 4.644-16.746 5.612-24.111l9.522-0.541z" fill="#FCD3C0"/>
				<path d="m253.78 278.99c-1.096-0.195-2.165 0.085-3.063 0.792-0.518 0.408-1.088-0.479-0.568-0.888 1.101-0.868 2.453-1.21 3.795-0.971 0.632 0.113 0.468 1.18-0.164 1.067z" fill="#fff"/>
				<path d="m252.81 277.24c-1.274-0.387-2.409 0.3-3.443 1.05-0.532 0.385-1.103-0.5-0.568-0.888 1.233-0.894 2.658-1.689 4.174-1.229 0.612 0.185 0.453 1.254-0.163 1.067z" fill="#fff"/>
				<path d="m251.8 275.68c-1.429-0.295-2.422 0.454-3.618 1.163-0.556 0.329-1.131-0.554-0.568-0.888 1.433-0.849 2.644-1.695 4.35-1.342 0.628 0.129 0.466 1.197-0.164 1.067z" fill="#fff"/>
			<path d="m248.15 273.79c-1.13-0.336-1.61-1.29-1.61-1.29s0.589-2.124 1.39-5.187c2.052 1.82 3.539 2.053 4.388 1.957-0.86 1.541-1.714 2.906-2.528 3.973-1e-3 -1e-3 -0.511 0.882-1.64 0.547z" fill="#BDBEC0"/>
		<path d="m214.87 139.23c1.109-5.068 6.798-6.231 9.781-2.299 1.561 1.898 2.359 4.415 3.257 6.749 0.799 2.069 1.926 4.43 2.103 6.7 0.095 1.239-0.675 3.232-1.961 3.451-2.397 0.406-3.716-2.806-4.742-4.555-1.553-2.643-4.855-2.779-6.837-4.904-1.202-1.286-2.005-3.298-1.601-5.142z" fill="#FCD3C0"/>
		<polygon points="272.87 188.5 252.04 188.03 251.67 159.11 271.75 158.24" fill="#FCD3C0"/>
		<path d="m251.59 159.11l0.309 17.995c3.177 1.9 6.377 2.88 9.617 2.739 4.014-0.174 7.63-1.423 10.901-3.449l-0.668-18.161-20.159 0.876z" fill="#F7C3AC"/>
		<path d="m243.06 90.465c-25.01 10.18-27.052 36.968-21.864 51.86 5.877 17.727 22.942 35.043 39.294 34.332 16.952-0.737 28.758-11.368 36.199-25.547 9.37-17.852 7.132-48.89-20.694-60.9-14.02-6.052-32.935 0.255-32.935 0.255z" fill="#FCD3C0"/>
			<path d="m254.42 138.91c-2.725 1.46-4.543 4.209-3.203 7.522 1.135 2.81 5.035 2.963 7.079 1.554 0.981-0.677 0.546-1.322-0.421-0.656-1.377 0.949-3.773-0.467-4.698-1.553-1.629-1.913-0.704-4.88 1.221-5.911 0.744-0.398 1.222-1.598 0.022-0.956z" fill="#F0B297"/>
					<path d="m243.82 136.22c0.164 4.45-3.021 8.202-7.115 8.38-4.092 0.178-7.544-3.286-7.708-7.735s3.022-8.203 7.115-8.381c4.094-0.179 7.544 3.287 7.708 7.736z" fill="#fff"/>
					<path d="m236.4 145.19c-2.005 0-3.907-0.808-5.389-2.294-1.562-1.568-2.469-3.702-2.554-6.01-0.175-4.767 3.249-8.8 7.632-8.991 4.375-0.16 8.093 3.533 8.269 8.3 0.085 2.309-0.662 4.515-2.104 6.213-1.441 1.698-3.405 2.683-5.529 2.776-0.108 3e-3 -0.217 6e-3 -0.325 6e-3zm0.011-16.13c-0.093 0-0.185 2e-3 -0.278 6e-3 -1.835 0.08-3.533 0.932-4.779 2.4-1.247 1.468-1.892 3.376-1.819 5.371s0.857 3.84 2.207 5.196c1.35 1.355 3.116 2.072 4.939 1.977 1.836-0.08 3.533-0.932 4.779-2.399 1.246-1.468 1.892-3.374 1.818-5.37-0.146-4.02-3.201-7.181-6.867-7.181z" fill="#F0B297"/>
				<path d="m241.59 136.4c0.114 3.102-2.106 5.719-4.959 5.843-2.858 0.124-5.263-2.293-5.377-5.394-0.114-3.105 2.106-5.72 4.963-5.845 2.854-0.123 5.259 2.291 5.373 5.396z" fill="#69953E"/>
				<path d="m238.95 136.77c0.047 1.286-0.964 2.375-2.259 2.431-1.296 0.056-2.386-0.941-2.433-2.227-0.047-1.287 0.966-2.376 2.262-2.433 1.295-0.056 2.382 0.942 2.43 2.229z" fill="#010101"/>
			<path d="m276.42 120.22c4.538-0.194 8.097 1.408 11.242 4.104 1.126 0.963 4.688-1.055 3.331-2.218-3.498-2.997-7.713-4.702-12.723-4.489-1.025 0.044-2.105 0.462-2.667 1.255-0.45 0.636-0.116 1.389 0.817 1.348z" fill="#CFA231"/>
			<path d="m239.99 121.9c-4.54 0.111-7.998 2.006-10.983 5.002-1.067 1.07-4.74-0.765-3.451-2.058 3.317-3.328 7.426-5.377 12.438-5.5 1.026-0.026 2.129 0.333 2.735 1.111 0.486 0.623 0.196 1.421-0.739 1.445z" fill="#CFA231"/>
		<path d="m233.61 136.41c0.036 0.97-0.659 1.788-1.551 1.826-0.891 0.039-1.643-0.716-1.679-1.686s0.658-1.787 1.55-1.826c0.891-0.038 1.644 0.716 1.68 1.686z" fill="#FDFBE4"/>
		<path d="m233.98 140.35c0.02 0.552-0.375 1.018-0.883 1.04s-0.937-0.408-0.957-0.96c-0.02-0.553 0.375-1.018 0.883-1.04 0.508-0.023 0.937 0.407 0.957 0.96z" fill="#FDFBE4"/>
						<path d="m286.76 134.58c0.164 4.45-3.023 8.202-7.115 8.38-4.094 0.178-7.545-3.285-7.709-7.735s3.022-8.202 7.116-8.38c4.093-0.179 7.544 3.285 7.708 7.735z" fill="#fff"/>
						<path d="m279.35 143.55c-4.243 0-7.776-3.655-7.948-8.304-0.085-2.309 0.662-4.516 2.104-6.214 1.442-1.699 3.405-2.684 5.529-2.777 2.111-0.083 4.152 0.72 5.715 2.288 1.562 1.567 2.469 3.702 2.554 6.01 0.175 4.766-3.249 8.798-7.632 8.99-0.108 5e-3 -0.215 7e-3 -0.322 7e-3zm0.01-16.128c-0.093 0-0.187 2e-3 -0.281 6e-3 -1.836 0.079-3.533 0.932-4.78 2.4-1.246 1.468-1.892 3.375-1.818 5.371 0.152 4.121 3.369 7.365 7.148 7.172 3.789-0.165 6.749-3.65 6.597-7.77-0.073-1.995-0.857-3.841-2.207-5.196-1.281-1.285-2.926-1.983-4.659-1.983z" fill="#F0B297"/>
					<path d="m284.58 134.66c0.114 3.099-2.105 5.712-4.954 5.836-2.851 0.124-5.254-2.289-5.368-5.387-0.114-3.099 2.105-5.71 4.955-5.834 2.849-0.125 5.253 2.286 5.367 5.385z" fill="#69953E"/>
					<path d="m281.94 135.04c0.047 1.285-0.962 2.372-2.255 2.428-1.295 0.056-2.383-0.939-2.43-2.224s0.964-2.372 2.259-2.428c1.293-0.057 2.379 0.939 2.426 2.224z" fill="#010101"/>
			<path d="m276.67 134.78c0.036 0.97-0.659 1.788-1.551 1.826-0.891 0.039-1.643-0.716-1.679-1.686s0.658-1.787 1.55-1.826c0.891-0.038 1.644 0.717 1.68 1.686z" fill="#FDFBE4"/>
			<path d="m277.04 138.73c0.02 0.552-0.375 1.018-0.883 1.04s-0.937-0.408-0.957-0.96c-0.02-0.553 0.375-1.018 0.883-1.041 0.508-0.022 0.937 0.408 0.957 0.961z" fill="#FDFBE4"/>
		<path d="m307.35 136.03c-1.408-4.724-6.895-5.358-9.454-1.375-1.35 1.932-1.933 4.39-2.623 6.682-0.614 2.032-1.52 4.368-1.529 6.54-4e-3 1.185 0.868 3.015 2.105 3.116 2.306 0.187 3.334-2.973 4.187-4.72 1.29-2.64 4.418-3.042 6.153-5.225 1.051-1.322 1.674-3.3 1.161-5.018z" fill="#FCD3C0"/>
		<path d="m262.34 250.69s-0.614-5.429 2.342-5.438c2.719-8e-3 2.983 4.437 2.71 5.218 0 0 2.313 0.969 7.68 0.736s7.043-1.376 7.043-1.376 3.031-3.543 2.677-13.183l-39.598 1.722s0.211 8.492 3.106 12.931c0 0 2.157 0.976 6.96 0.767 4.803-0.208 7.08-1.377 7.08-1.377z" fill="#7CBECC"/>
		<path d="m245.19 238.37s0.067 1.342 0.124 1.949l39.501-1.717s-0.067-1.707-0.028-1.954l-39.597 1.722z" fill="#010101" opacity=".2"/>
		<polygon points="247.51 241.96 251.51 241.02 251.54 241.79" fill="#010101" opacity=".2"/>
		<polygon points="282.48 240.84 278.43 240.15 278.45 240.92" fill="#010101" opacity=".2"/>
		<path d="m251.97 182.78s9.135 8.844 20.649-0.898c0 0 12.589 1.476 19.239 6.094l-9.528 13.285 5.295 35.413-44.498 1.935 2.241-35.532-10.48-12.954c1e-3 0 8.1-6.623 17.082-7.343z" fill="#ED583A"/>
			<path d="m219.26 134.14c-2.077-12.186-1.91-29.798 5.675-39.392 8.754-11.036 21.009-13.426 33.819-14.007 14.373-0.652 29.687 3.723 36.71 17.548 2.634 5.213 3.652 9.911 4.89 15.88 1.026 5.746 1.164 13.091 1.571 18.633-0.383-10.408-10.222-34.349-33.525-29.597-3.312 0.675-7.375 4.645-18.44 2.269-8.151-1.75-16.724-0.895-23.659 4.271-5.343 4.171-6.383 12.408-7.135 19.622l0.094 4.773z" fill="#ECBA38"/>
			<path d="m219.02 110.91c1.785-6.796 3.021-11.544 6.457-17.717 3.233-6.163 7.509-11.676 6.83-19.06 2.694 1.273 3.779 8.638 3.288 11.903 5.232-12.736 19.491-17.989 31.184-15.486-6.233 2.125-13.133 2.656-15.487 10.634 3.642-0.622 7.232-2.632 11.279-3.27 4.445-0.888 8.916-1.083 13.413-0.583 8.181 1.034 14.362 3.081 21.273 8.34-3.717-1.46-8.612-1.71-12.415 0.076 2.11 1.994 6.792 2.022 9.503 3.757 1.879 1.308 3.353 2.634 4.853 4.653 1.735 2.936 2.676 6.369 3.812 9.563-14.448-10.953-37.286-12.046-53.841-8.314-6.868 1.457-13.861 5.004-20.263 8.062-4.005 1.795-7.374 4.258-9.88 8.073l-6e-3 -0.631z" fill="#ECBA38"/>
			<g fill="#010101" opacity=".09">
				<path d="m255.92 74.656c3.102-2.11 7.101-2.821 10.863-4.104-6.421-1.374-13.612-0.404-19.659 2.854 2.877 0.202 5.831 0.597 8.796 1.25z"/>
				<path d="m296.03 99.462c2.483 1.213 4.832 2.624 6.99 4.26-1.136-3.194-2.076-6.627-3.812-9.563-1.5-2.019-2.974-3.346-4.853-4.653-2.711-1.735-7.394-1.763-9.503-3.757 3.803-1.787 8.698-1.536 12.415-0.076-6.911-5.259-13.092-7.306-21.273-8.34-3.709-0.412-7.401-0.344-11.076 0.188 11.15 4.799 21.46 14.471 27.221 32.94 6.141 6.462 9.202 15.46 9.725 21.252-0.354-5.392-0.538-12.161-1.499-17.545-1.144-5.515-2.117-9.95-4.335-14.706z"/>
			</g>
		<g fill="#EC6F55">
			<polygon points="273.54 206.87 253.52 207.74 253.26 200.82 273.29 199.95"/>
			<polygon points="273.78 213.43 253.76 214.3 253.59 209.78 273.62 208.91"/>
			<polygon points="273.96 218.23 253.94 219.1 253.83 216.18 273.85 215.31"/>
			<polygon points="274.08 221.62 254.06 222.49 254.01 221.03 274.03 220.16"/>
			<polygon points="274.17 223.94 254.14 224.82 254.1 223.67 274.13 222.8"/>
		</g>
			<path d="m256.59 167.71c1.82-1.151 3.938-1.288 5.865-0.364 0.584 0.28 1.054-0.674 0.467-0.955-2.265-1.086-4.727-0.947-6.868 0.408-0.553 0.35-0.017 1.262 0.536 0.911z" fill="#F0B297"/>
		<path d="m241.66 150.18s15.611 15.291 34.394-1.495c0 0-5.669 12.198-17.812 12.726-9.907 0.431-16.582-11.231-16.582-11.231z" fill="#010101"/>
			<defs>
				<path id="u" d="m241.66 150.18s15.611 15.291 34.394-1.495c0 0-5.669 12.198-17.812 12.726-9.907 0.431-16.582-11.231-16.582-11.231z"/>
			</defs>
			<clipPath id="w">
				<use overflow="visible" xlink:href="#u"/>
			</clipPath>
			<path d="m253.14 160.74s3.69-2.706 6.039-1.158c0 0 3.832-1.839 5.616 0.651 0 0-6.578 3.487-11.655 0.507z" clip-path="url(#w)" fill="#ED583A"/>
				<path d="m170.58 202.56s4.296 14.825 26.806 20.094l1.992-4.168s-16.183-5.933-22.336-18.599l-6.462 2.673z" fill="#FCD3C0"/>
			<path d="m195.87 221.69c0.544 1.484 2.01 3.229 3.91 3.084s3.091-1.742 2.97-3.609-1.758-3.263-3.658-3.118-3.86 1.904-3.222 3.643z" fill="#FCD3C0"/>
				<path d="m200.3 223.69c0.864 0.663 2.505 1.25 3.5 0.744 0.58-0.295 0.906 0.728 0.331 1.02-1.355 0.69-3.328-0.06-4.483-0.947-0.524-0.403 0.133-1.216 0.652-0.817z" fill="#FCD3C0"/>
				<path d="m201.92 222.24c0.452 0.046 0.805 0.36 1.245 0.441 0.464 0.086 0.98 0.04 1.442-0.04 0.632-0.109 0.698 0.97 0.07 1.079-0.505 0.087-1.028 0.096-1.537 0.043-0.508-0.053-0.921-0.411-1.416-0.462-0.637-0.066-0.437-1.126 0.196-1.061z" fill="#FCD3C0"/>
				<path d="m201.8 220.78c0.472-0.069 0.892 0.049 1.354 0.129 0.587 0.101 1.166 0.079 1.745-0.071 0.617-0.16 0.953 0.859 0.331 1.02-0.562 0.146-1.114 0.221-1.693 0.182-0.558-0.038-1.109-0.263-1.668-0.182-0.635 0.093-0.702-0.986-0.069-1.078z" fill="#FCD3C0"/>
				<path d="m201.83 219.23c1.032 7e-3 2.059-0.05 3.084-0.171 0.735-0.086 0.814 1.158 0.08 1.245-1.026 0.121-2.053 0.178-3.084 0.171-0.733-5e-3 -0.819-1.25-0.08-1.245z" fill="#FCD3C0"/>
				<path d="m197.93 217.79c1.025-1.503 3.627-1.055 5.098-0.903 0.89 0.092 0.611 1.576-0.275 1.485-0.909-0.094-3.138-0.518-3.771 0.411-0.535 0.784-1.583-0.214-1.052-0.993z" fill="#FCD3C0"/>
				<path d="m141.54 205.65s-12.819 6.88-14.171 31.872l4.093 1.504s2.921-18.295 13.495-26.841l-3.417-6.535z" fill="#FCD3C0"/>
			<path d="m128.01 235.75c-1.265 0.812-2.628 2.653-2.206 4.672s2.056 3.055 3.734 2.641c1.679-0.415 2.697-2.388 2.276-4.407-0.422-2.02-2.321-3.857-3.804-2.906z" fill="#FCD3C0"/>
				<path d="m126.87 240.81c-0.471 1.029-0.754 2.882-0.141 3.874 0.357 0.578-0.523 1.084-0.877 0.511-0.834-1.351-0.453-3.586 0.177-4.962 0.285-0.623 1.124-0.042 0.841 0.577z" fill="#FCD3C0"/>
				<path d="m128.44 242.33c0.027 0.493-0.204 0.92-0.21 1.405-7e-3 0.512 0.114 1.059 0.257 1.543 0.196 0.663-0.775 0.898-0.97 0.24-0.156-0.53-0.244-1.089-0.274-1.645-0.029-0.554 0.233-1.052 0.203-1.592-0.038-0.694 0.956-0.641 0.994 0.049z" fill="#FCD3C0"/>
				<path d="m129.74 241.98c0.135 0.497 0.091 0.966 0.089 1.475-2e-3 0.646 0.106 1.266 0.331 1.865 0.24 0.639-0.635 1.155-0.877 0.511-0.218-0.582-0.371-1.164-0.424-1.792-0.05-0.605 0.07-1.232-0.09-1.82-0.18-0.668 0.791-0.905 0.971-0.239z" fill="#FCD3C0"/>
				<path d="m131.16 241.77c0.151 1.11 0.36 2.205 0.626 3.288 0.191 0.776-0.929 1.051-1.119 0.276-0.266-1.084-0.475-2.179-0.626-3.288-0.108-0.788 1.01-1.071 1.119-0.276z" fill="#FCD3C0"/>
				<path d="m131.88 237.36c1.522 0.872 1.512 3.737 1.599 5.34 0.052 0.971-1.339 0.897-1.391-0.069-0.053-0.991-9e-3 -3.451-0.949-3.989-0.795-0.455-0.048-1.734 0.741-1.282z" fill="#FCD3C0"/>
			<path d="m160.14 290.5s-9.452 4.943-6.085 8.466c2.559 2.677 9.09-1.397 11.197-6.067 0.948-2.102 0.161-2.826-0.146-3.704-0.948-2.714-2.218-0.521-2.218-0.521l-2.748 1.826z" fill="#8B181B"/>
			<path d="m159.2 288.99s-7.618 5.654-5.878 9.019 8.884-1.95 10.99-6.62-2.363-4.225-2.363-4.225l-2.749 1.826z" fill="#EC2227"/>
			<path d="m150.94 263.05s4.648 19.386 9.023 26.75l3.42-0.444s-2.893-17.101-3.048-24.539l-9.395-1.767z" fill="#FCD3C0"/>
			<path d="m159.91 289.72s-3.486 2.58-3.898 4.697 2.894 0.522 2.894 0.522 2.802-1.685 4.471-5.583l-3.467 0.364z" fill="#FCD3C0"/>
			<path d="m156.52 292.78s1.831-0.771 3.603 1.209c0 0 0.973 0.224 0.929-0.945 0 0-2.239-1.972-4.063-1.14 1e-3 -1e-3 -0.764 0.326-0.469 0.876z" fill="#EC2227"/>
			<path d="m193.01 280.3s-6.184 9.211-1.685 10.587c3.418 1.045 7.405-5.9 7.233-11.098-0.077-2.34-1.086-2.574-1.738-3.19-2.015-1.905-2.181 0.68-2.181 0.68l-1.629 3.021z" fill="#8B181B"/>
			<path d="m191.52 279.46s-4.258 8.896-1.263 10.968c2.995 2.073 6.983-6.281 6.811-11.479s-3.919-2.51-3.919-2.51l-1.629 3.021z" fill="#EC2227"/>
			<path d="m172.97 260.84s12.519 14.7 19.574 18.944l2.822-2.148s-9.979-13.587-13.347-20.064l-9.049 3.268z" fill="#FCD3C0"/>
			<path d="m192.47 279.74s-1.952 4.064-1.395 6.142 2.777-1.026 2.777-1.026 1.737-2.924 1.515-7.218l-2.897 2.102z" fill="#FCD3C0"/>
			<path d="m190.81 284.18s1.279-1.62 3.701-0.785c0 0 0.955-0.303 0.408-1.311 0 0-2.831-0.588-4.076 1.082 0 0-0.532 0.681-0.033 1.014z" fill="#EC2227"/>
		<path d="m176.4 228.68l-14.588 5.262-15.353 0.774s-8.784 10.472-5.602 25.964c0 0 0.875 11.557 26.771 7.363 24.81-5.478 22.563-17.309 22.563-17.309-2.139-15.702-13.791-22.054-13.791-22.054z" fill="#282561"/>
		<g opacity=".17">
			<defs>
				<path id="v" d="m176.4 228.68l-14.588 5.262-15.353 0.774s-8.784 10.472-5.602 25.964c0 0 0.875 11.557 26.771 7.363 24.81-5.478 22.563-17.309 22.563-17.309-2.139-15.702-13.791-22.054-13.791-22.054z" opacity=".17"/>
			</defs>
			<clipPath id="a">
				<use overflow="visible" xlink:href="#v"/>
			</clipPath>
			<g clip-path="url(#a)">
				<path d="m149.13 233.21c-5.118 11.826-4.297 24.831-1.442 37.21 0.31 1.344 2.268 0.959 1.956-0.394-2.778-12.044-3.625-24.567 1.358-36.083 0.546-1.262-1.331-1.983-1.872-0.733z" fill="#fff"/>
			</g>
			<g clip-path="url(#a)">
				<path d="m154.1 232.17c-1.778 12.747-1.391 25.58 1.141 38.174 0.273 1.357 2.23 0.969 1.956-0.394-2.496-12.417-2.867-25.03-1.114-37.595 0.192-1.379-1.792-1.555-1.983-0.185z" fill="#fff"/>
			</g>
			<g clip-path="url(#a)">
				<path d="m157.64 232.57c1.762 2.446 1.734 7.283 2.24 10.26 0.51 3 1.008 6.003 1.496 9.007 1.019 6.283 1.986 12.575 2.912 18.874 0.202 1.375 2.158 0.98 1.956-0.394-1.087-7.395-2.232-14.78-3.448-22.151-0.586-3.549-1.187-7.095-1.804-10.638-0.394-2.263-0.516-4.525-1.846-6.372-0.789-1.097-2.295 0.318-1.506 1.414z" fill="#fff"/>
			</g>
			<g clip-path="url(#a)">
				<path d="m160.96 230.38c6.37 11.879 10.758 24.706 13.054 38.23 0.232 1.369 2.189 0.977 1.956-0.394-2.326-13.705-6.762-26.74-13.22-38.782-0.64-1.194-2.437-0.261-1.79 0.946z" fill="#fff"/>
			</g>
			<g clip-path="url(#a)">
				<path d="m164.96 229.26c8.712 9.998 14.688 22.136 17.464 35.576 0.28 1.355 2.237 0.967 1.956-0.394-2.85-13.799-8.966-26.328-17.914-36.596-0.878-1.007-2.39 0.4-1.506 1.414z" fill="#fff"/>
			</g>
			<g clip-path="url(#a)">
				<path d="m169.12 226.9c9.06 9.054 15.413 20.566 18.405 33.552 0.31 1.344 2.268 0.959 1.956-0.394-3.076-13.351-9.53-25.253-18.856-34.572-0.931-0.93-2.449 0.471-1.505 1.414z" fill="#fff"/>
			</g>
		</g>
		<path d="m140.04 93.742c-65.624 15.699-30.99 97.959-30.99 97.959 20.574 9.596 42.181 5.087 47.76 3.657v1e-3s29.571-3.277 48.125-22.962c0-1e-3 1.725-87.95-64.895-78.655z" fill="#6F4827"/>
		<path d="m140.06 93.63c-6.798 1.626-12.505 3.975-17.302 6.865 2.648-1.022 5.503-1.909 8.578-2.647 66.632-9.22 65.176 80.304 65.176 80.304-1.718 1.854-3.533 3.563-5.41 5.14 4.868-2.93 9.643-6.543 13.852-11.007 1e-3 0 1.725-87.949-64.894-78.655z" fill="#010101" opacity=".13"/>
		<path d="m118.05 176.41s5.461 20.037 27.416 20.878l-0.377-7.417-27.039-13.461z" fill="#010101" opacity=".27"/>
		<path d="m186.75 162.7s-2.064 25.398-23.306 31.488l-1.599-7.763 24.905-23.725z" fill="#010101" opacity=".27"/>
		<path d="m104.27 163.51c0.432-5.198 5.921-7.237 9.396-3.802 1.798 1.639 2.921 4.011 4.119 6.185 1.064 1.927 2.493 4.093 2.967 6.317 0.258 1.213-0.244 3.31-1.49 3.727-2.324 0.776-4.054-2.204-5.302-3.778-1.888-2.38-5.18-2-7.425-3.798-1.361-1.09-2.423-2.959-2.265-4.851z" fill="#FCD3C0"/>
		<polygon points="168.18 203.29 147.5 206.06 143.34 177.49 163.1 173.51" fill="#FCD3C0"/>
		<path d="m143.26 177.51l2.67 17.762c3.394 1.387 6.69 1.86 9.879 1.217 3.95-0.796 7.365-2.594 10.336-5.107l-3.048-17.871-19.837 3.999z" fill="#F7C3AC"/>
		<path d="m125.8 110.89c-23.416 13.961-21.917 40.791-14.825 54.724 8.146 16.632 27.311 31.119 43.402 27.875 16.681-3.363 26.969-15.719 32.471-30.908 6.928-19.125 0.635-49.496-28.484-57.061-14.671-3.811-32.564 5.37-32.564 5.37z" fill="#FCD3C0"/>
			<path d="m143.41 157.07c-2.505 1.868-3.943 4.871-2.182 7.943 1.493 2.605 5.373 2.15 7.211 0.439 0.882-0.822 0.366-1.393-0.503-0.584-1.238 1.153-3.796 0.124-4.854-0.807-1.863-1.64-1.338-4.72 0.432-6.04 0.684-0.512 0.999-1.773-0.104-0.951z" fill="#F0B297"/>
				<path d="m118.72 153.57c-0.965-0.306-1.834-0.731-2.105-1.877-0.102-0.431-1.15-0.568-1.037-0.087 0.372 1.575 1.672 2.207 2.994 2.626 0.626 0.199 0.764-0.466 0.148-0.662z" fill="#F0B297"/>
				<path d="m117.69 155.54c-1.035 9e-3 -2.063-0.586-2.568-1.583-0.241-0.476-1.045 0.265-0.844 0.663 0.597 1.18 1.767 1.895 3.003 1.885 0.407-4e-3 0.956-0.97 0.409-0.965z" fill="#F0B297"/>
					<path d="m132.56 156.05c0.747 4.378-1.912 8.587-5.941 9.399-4.027 0.812-7.898-2.08-8.645-6.458s1.914-8.589 5.94-9.4c4.029-0.813 7.899 2.081 8.646 6.459z" fill="#fff"/>
					<path d="m125.25 166.18c-1.593 0-3.148-0.521-4.489-1.523-1.751-1.309-2.93-3.281-3.317-5.552s0.062-4.572 1.266-6.476c1.204-1.905 3.017-3.186 5.107-3.608 4.316-0.863 8.473 2.239 9.274 6.93 0.387 2.272-0.062 4.572-1.266 6.476-1.204 1.905-3.017 3.186-5.107 3.607-0.49 0.097-0.981 0.146-1.468 0.146zm0.02-16.132c-0.415 0-0.835 0.041-1.256 0.126-1.806 0.364-3.374 1.472-4.415 3.119-1.04 1.647-1.429 3.635-1.094 5.598 0.334 1.964 1.353 3.668 2.867 4.799 1.514 1.132 3.345 1.556 5.149 1.189 1.807-0.364 3.375-1.47 4.415-3.117 1.04-1.646 1.429-3.634 1.094-5.598-0.613-3.596-3.512-6.116-6.76-6.116z" fill="#F0B297"/>
				<path d="m130.38 156.58c0.52 3.052-1.333 5.988-4.14 6.554-2.812 0.567-5.51-1.451-6.03-4.503-0.521-3.055 1.333-5.989 4.145-6.556 2.807-0.567 5.504 1.45 6.025 4.505z" fill="#855020"/>
				<path d="m127.81 157.36c0.216 1.265-0.641 2.5-1.917 2.757-1.275 0.257-2.485-0.561-2.701-1.827-0.216-1.267 0.644-2.502 1.919-2.759 1.276-0.257 2.483 0.562 2.699 1.829z" fill="#010101"/>
				<path d="m172.19 142c0.721 0 1.473-0.143 2.054-0.631 0.612-0.515 1.018-1.413 1.062-2.244 1e-3 -0.025-1.041 5e-3 -1.05 0.185-0.027 0.5-0.181 0.954-0.405 1.389-0.137 0.266-0.32 0.499-0.52 0.712-0.068 0.069-0.14 0.133-0.215 0.193-0.127 0.107-0.42 0.167-0.029 0.167-0.242 0-0.487 0.041-0.722 0.102-0.032 7e-3 -0.387 0.128-0.175 0.127z" fill="#F0B297"/>
				<path d="m173.99 143.74c1.329-0.102 2.209-0.921 2.782-2.191 0.27-0.599-0.713-1.041-0.984-0.441-0.419 0.929-1.009 1.519-1.985 1.594-0.691 0.053-0.437 1.086 0.187 1.038z" fill="#F0B297"/>
					<path d="m175.72 147.33c0.747 4.379-1.914 8.587-5.941 9.399-4.028 0.812-7.9-2.079-8.646-6.458-0.747-4.378 1.914-8.588 5.942-9.4 4.027-0.811 7.899 2.081 8.645 6.459z" fill="#fff"/>
					<path d="m168.42 157.45c-3.759 1e-3 -7.11-2.914-7.821-7.073-0.387-2.272 0.063-4.572 1.267-6.477 1.204-1.904 3.018-3.185 5.107-3.607 2.089-0.42 4.204 0.068 5.957 1.377 1.751 1.309 2.93 3.281 3.317 5.552 0.387 2.272-0.062 4.572-1.266 6.476s-3.017 3.185-5.107 3.606c-0.488 0.098-0.974 0.146-1.454 0.146zm0.019-16.131c-0.421 0-0.846 0.042-1.268 0.128-1.806 0.364-3.374 1.471-4.415 3.118-1.041 1.646-1.43 3.634-1.095 5.598 0.691 4.054 4.29 6.747 8.017 5.988 1.806-0.364 3.374-1.47 4.415-3.117 1.04-1.646 1.429-3.634 1.094-5.597-0.334-1.964-1.353-3.669-2.867-4.8-1.16-0.868-2.504-1.318-3.881-1.318z" fill="#F0B297"/>
				<path d="m173.57 147.75c0.52 3.049-1.333 5.981-4.137 6.546-2.805 0.565-5.501-1.449-6.021-4.498s1.333-5.979 4.138-6.544c2.804-0.565 5.5 1.447 6.02 4.496z" fill="#855020"/>
				<path d="m171.01 148.53c0.216 1.264-0.64 2.497-1.913 2.753-1.275 0.257-2.482-0.559-2.697-1.824-0.216-1.264 0.642-2.497 1.917-2.754 1.272-0.256 2.478 0.56 2.693 1.825z" fill="#010101"/>
			<path d="m164.03 135.62c4.466-0.897 8.199 0.135 11.666 2.316 1.241 0.779 4.502-1.772 3.006-2.713-3.856-2.423-8.251-3.456-13.182-2.466-1.009 0.202-2.022 0.784-2.474 1.656-0.365 0.699 0.065 1.393 0.984 1.207z" fill="#603A17"/>
			<path d="m126.02 141.55c-4.478 0.815-7.652 3.228-10.213 6.657-0.915 1.224-4.792-0.021-3.686-1.501 2.845-3.809 6.643-6.475 11.588-7.375 1.012-0.185 2.151-1e-3 2.853 0.674 0.562 0.542 0.381 1.376-0.542 1.545z" fill="#603A17"/>
		<path d="m122.48 157.83c0.163 0.955-0.417 1.872-1.295 2.049-0.877 0.177-1.721-0.453-1.883-1.408-0.163-0.954 0.417-1.871 1.294-2.048s1.721 0.452 1.884 1.407z" fill="#FDFBE4"/>
		<path d="m123.36 161.67c0.093 0.543-0.238 1.066-0.738 1.167s-0.981-0.258-1.073-0.802c-0.093-0.544 0.238-1.066 0.738-1.167s0.981 0.258 1.073 0.802z" fill="#FDFBE4"/>
		<path d="m165.76 149.1c0.163 0.955-0.417 1.872-1.295 2.049-0.877 0.177-1.721-0.453-1.883-1.408-0.163-0.954 0.417-1.871 1.294-2.048s1.721 0.453 1.884 1.407z" fill="#FDFBE4"/>
		<path d="m166.64 152.95c0.093 0.543-0.238 1.066-0.738 1.167s-0.981-0.258-1.073-0.802c-0.093-0.544 0.238-1.066 0.738-1.167s0.981 0.258 1.073 0.802z" fill="#FDFBE4"/>
		<path d="m194.63 145.72c-1.889-4.178-7.059-3.967-8.942 0.101-1.015 1.99-1.253 4.356-1.61 6.583-0.319 1.975-0.872 4.275-0.613 6.292 0.142 1.1 1.177 2.672 2.337 2.585 2.163-0.162 2.727-3.245 3.304-4.99 0.872-2.638 3.725-3.466 5.066-5.745 0.812-1.38 1.146-3.306 0.458-4.826z" fill="#FCD3C0"/>
		<path d="m167.12 197.12c-1.672 3.887-10.12 6.222-10.12 6.222s-7.558 1.662-10.13-1.596c0 0-14.646-1.952-15.03 11.618 0 0 10.01 3.326 10.877 5.246 0 0 3.243-0.759 3.996-2.671l-0.257 18.778s5.315 3.523 15.752 1.565c10.389-2.241 14.189-7.602 14.189-7.602l-6.432-17.429c1.333 1.491 4.611 0.936 4.611 0.936 0.176-2.13 8.424-9.137 8.424-9.137-4.834-12.519-15.88-5.93-15.88-5.93z" fill="#FBB041"/>
		<path d="m154.94 225.94c0.201 1.176-0.514 2.306-1.595 2.524s-2.121-0.558-2.321-1.734c-0.201-1.176 0.514-2.306 1.595-2.524 1.082-0.218 2.121 0.558 2.321 1.734z" fill="#fff"/>
		<path d="m163.36 216.88c0.17 0.998-0.436 1.958-1.354 2.143s-1.801-0.474-1.971-1.473c-0.17-0.998 0.436-1.958 1.354-2.143 0.919-0.184 1.801 0.475 1.971 1.473z" fill="#fff"/>
		<path d="m168.9 225.23c0.121 0.709-0.31 1.391-0.962 1.522s-1.279-0.337-1.4-1.046 0.31-1.391 0.962-1.522c0.652-0.132 1.279 0.336 1.4 1.046z" fill="#fff"/>
		<path d="m170.55 205.18c0.202 1.184-0.517 2.321-1.605 2.54s-2.134-0.562-2.336-1.746c-0.202-1.183 0.517-2.321 1.605-2.54s2.134 0.562 2.336 1.746z" fill="#fff"/>
		<path d="m176.3 201.67c0.125 0.734-0.321 1.44-0.996 1.576s-1.324-0.349-1.449-1.083 0.321-1.44 0.996-1.576 1.324 0.349 1.449 1.083z" fill="#fff"/>
		<path d="m142.32 209.22c0.232 1.362-0.595 2.671-1.848 2.924s-2.457-0.647-2.689-2.009 0.595-2.671 1.848-2.924 2.457 0.646 2.689 2.009z" fill="#fff"/>
		<path d="m148.85 208.82c0.149 0.871-0.381 1.709-1.182 1.87-0.801 0.162-1.572-0.414-1.72-1.285-0.149-0.871 0.381-1.709 1.182-1.87 0.802-0.162 1.572 0.414 1.72 1.285z" fill="#fff"/>
		<path d="m155.6 210.24c0.105 0.617-0.269 1.209-0.837 1.324-0.567 0.114-1.112-0.293-1.217-0.91s0.269-1.209 0.837-1.324c0.567-0.114 1.112 0.294 1.217 0.91z" fill="#fff"/>
		<path d="m152.24 216.97c0.085 0.499-0.218 0.979-0.677 1.072s-0.9-0.237-0.985-0.736 0.218-0.979 0.677-1.072c0.458-0.093 0.899 0.237 0.985 0.736z" fill="#fff"/>
		<path d="m163.2 231.28c0.143 0.841-0.367 1.649-1.141 1.805-0.773 0.156-1.517-0.399-1.66-1.24s0.367-1.649 1.141-1.805 1.517 0.399 1.66 1.24z" fill="#fff"/>
		<path d="m169.88 219.24c0.05 0.294-0.128 0.576-0.398 0.63s-0.53-0.139-0.58-0.433 0.128-0.576 0.398-0.63 0.53 0.139 0.58 0.433z" fill="#fff"/>
		<path d="m161.94 207.58c0.061 0.357-0.156 0.7-0.484 0.766s-0.644-0.169-0.704-0.526c-0.061-0.357 0.156-0.7 0.484-0.766 0.328-0.067 0.643 0.169 0.704 0.526z" fill="#fff"/>
		<path d="m107.63 133.6s3.253-27.361 32.508-32.819 41.8 11.798 44.858 23.407l-77.366 9.412z" fill="#951B1E"/>
		<path d="m106.06 147.62s8.311 0.735 24.041-2.034l2.361-12.529 2.258 13.241s11.718 0.084 20.548-4.143l-1.993-11.688 6.881 10.702s14.694 0.053 27.032-8.461c0 0-10.194-32.536-43.991-27.43-33.795 5.106-37.137 42.342-37.137 42.342z" fill="#010101" opacity=".13"/>
		<path d="m104.96 145.15s8.311 0.735 24.041-2.034l2.361-12.529 2.258 13.241s11.718 0.084 20.548-4.143l-1.993-11.688 6.881 10.702s16.093-0.87 28.431-9.384c0 0-11.592-31.613-45.389-26.507-33.797 5.107-37.138 42.342-37.138 42.342z" fill="#764E2A"/>
		<path d="m129.97 111.66s-16.53 5.605-20.836 27.814c-1e-3 0 6.403-16.837 20.836-27.814z" fill="#fff" opacity=".09"/>
			<path d="m175.4 106.07c-1.677-1.539-2.949-3.595-3.627-5.865-0.369-1.234-0.552-2.63-0.023-3.793 0.53-1.162 1.999-1.866 2.978-1.126 0.454 0.343 0.716 0.907 0.929 1.462 1.29 3.363 1.374 7.254 0.23 10.679-1.424-0.832-2.866-1.671-4.433-2.104s-3.296-0.423-4.727 0.396c-0.784 0.448-1.495 1.218-1.573 2.178-0.1 1.222 0.897 2.298 1.993 2.59 1.095 0.293 2.246-0.011 3.324-0.37 1.852-0.617 3.657-1.404 5.388-2.35-1.58 1.149-2.953 2.721-3.632 4.652-0.679 1.93-0.582 4.241 0.517 5.927 0.292 0.448 0.656 0.853 1.106 1.102 1.329 0.735 3.039-0.154 3.808-1.543s0.814-3.105 0.719-4.722c-0.124-2.09-0.481-4.258-1.64-5.93 0.934 1.647 1.881 3.313 3.157 4.661s2.937 2.368 4.715 2.425c1.129 0.036 2.355-0.397 2.953-1.439 0.534-0.931 0.447-2.181-0.056-3.132s-1.364-1.628-2.289-2.066c-2.414-1.143-5.188-0.78-7.772-0.23 2.655-0.344 5.491-0.773 7.487-2.708 1.195-1.159 1.982-3.12 1.223-4.653-0.635-1.284-2.18-1.799-3.489-1.482s-2.399 1.304-3.275 2.408c-1.276 1.61-2.21 3.538-2.709 5.592" fill="#EC2227"/>
				<path d="m176.16 105.36c-0.64-0.657-1.276-1.306-1.806-2.076-0.401-0.74-0.802-1.481-1.203-2.221 0.854-4.28 1.503-5.173 1.947-2.68 1.004 2.737 0.637 5.947-0.14 8.675 0.5-0.175 1-0.35 1.499-0.525-2.823-1.628-11.508-5.249-12.26 1.131-0.859 7.278 9.992 2.166 12.104 1.072-0.362-0.597-0.723-1.195-1.085-1.792-2.428 1.954-4.455 4.641-4.388 8.102 0.047 2.399 1.205 5.319 3.651 5.7 6.633 1.034 5.12-10.536 3.16-13.971-0.597 0.315-1.193 0.63-1.79 0.946 1.611 2.807 3.394 5.892 6.37 7.141 2.024 0.85 4.997 0.851 6.229-1.478 1.075-2.031 0.163-4.364-1.374-5.717-2.725-2.4-6.61-1.884-9.802-1.264-1.268 0.246-0.9 2.302 0.363 2.127 3.303-0.458 13.416-3.8 8.967-9.541-4.252-5.488-9.713 3.338-10.848 7.268-0.383 1.327 1.488 2.063 1.872 0.733 0.323-1.12 0.685-2.255 1.232-3.274 0.212-0.357 0.425-0.713 0.637-1.07 0.917-2.361 1.967-2.452 3.148-0.274 2.018 0.916 2.23 1.66 0.635 2.233-0.638 0.554-1.361 0.894-2.17 1.019-1.262 0.432-2.529 0.597-3.837 0.778l0.363 2.127c0.869-0.169 1.745-0.364 2.627-0.439 0.788-2e-3 1.577-4e-3 2.365-7e-3 3.269 0.042 3.802 1.003 1.597 2.882-1.684 2.354-1.938 1.828-3.71-7e-3 -1.194-1.237-1.997-2.653-2.875-4.184-0.67-1.167-2.467-0.241-1.79 0.946 0.637 1.117 2.691 6.384 1.508 7.812-1.493 0.118-2.987 0.235-4.48 0.353 0.098-1.035 0.196-2.07 0.293-3.105 0.575-1.79 1.997-3.114 3.347-4.2 0.922-0.742-0.088-2.308-1.085-1.792-0.953 0.494-5.346 3.143-6.233 2.581-0.126-3.156 0.901-4.036 3.079-2.639 1.054 0.443 2.071 0.971 3.053 1.583 0.533 0.307 1.292 0.204 1.499-0.525 0.891-3.128 2.064-13.891-3.081-13.871-6.87 0.027-1.151 10.741 0.904 12.854 0.924 0.95 2.441-0.452 1.508-1.411z" fill="#EC2227"/>
		<path d="m179.83 106.72c0.255 1.494-0.652 2.929-2.026 3.206s-2.694-0.709-2.949-2.203 0.652-2.929 2.026-3.206 2.694 0.709 2.949 2.203z" fill="#951B1E"/>
			<path d="m150.32 185.91c1.501-1.604 3.523-2.308 5.6-1.931 0.629 0.114 0.868-0.936 0.236-1.051-2.442-0.443-4.795 0.355-6.562 2.243-0.458 0.488 0.269 1.227 0.726 0.739z" fill="#F0B297"/>
			<path d="m133.85 172.97s18.123 11.56 33.412-8.996c0 0-3.293 13.189-15.09 16.366-9.623 2.591-18.322-7.37-18.322-7.37z" fill="#010101"/>
				<defs>
					<path id="x" d="m133.85 172.97s18.123 11.56 33.412-8.996c0 0-3.293 13.189-15.09 16.366-9.623 2.591-18.322-7.37-18.322-7.37z"/>
				</defs>
				<clipPath id="ad">
					<use overflow="visible" xlink:href="#x"/>
				</clipPath>
				<path d="m147.06 180.8s3.113-3.458 5.701-2.457c0 0 3.412-2.64 5.621-0.591 0-1e-3 -5.797 4.856-11.322 3.048z" clip-path="url(#ad)" fill="#ED583A"/>
		<path d="m641.01 175.67c-7.307 25.186-24.085 39.841-55.605 34.395-29.993-5.182-46.286-32.605-41.254-58.441 5.032-25.837 34.584-43.65 58.347-38.179 23.762 5.471 46.097 36.081 38.512 62.225z" fill="#231F20"/>
		<path d="m602.5 113.45c-1.144-0.263-2.305-0.457-3.473-0.614 22.389 7.492 42.217 36.379 35.006 61.232-7.263 25.035-23.891 39.656-55.048 34.481 2.067 0.617 4.202 1.137 6.422 1.52 31.52 5.446 48.298-9.209 55.605-34.395 7.585-26.143-14.75-56.753-38.512-62.224z" fill="#161315"/>
				<path d="m592.98 223.8s-0.774 15.521 18.594 29.061l3.213-3.14s-13.23-11.742-14.893-25.952l-6.914 0.031z" fill="#FCD3C0"/>
			<path d="m610.46 251.38c0.03 1.597 0.837 3.791 2.662 4.382s3.457-0.449 3.948-2.243-0.591-3.727-2.416-4.318-4.228 0.308-4.194 2.179z" fill="#FCD3C0"/>
				<path d="m613.96 254.94c0.594 0.951 1.94 2.128 3.036 2.034 0.639-0.055 0.612 1.028-0.02 1.082-1.492 0.127-3.096-1.329-3.89-2.601-0.36-0.576 0.518-1.087 0.874-0.515z" fill="#FCD3C0"/>
				<path d="m615.95 254.2c0.408 0.216 0.637 0.645 1.023 0.888 0.407 0.258 0.904 0.412 1.363 0.514 0.627 0.14 0.34 1.175-0.284 1.037-0.501-0.112-0.993-0.303-1.453-0.548-0.459-0.244-0.729-0.737-1.176-0.973-0.574-0.304-0.044-1.22 0.527-0.918z" fill="#FCD3C0"/>
				<path d="m616.3 252.79c0.464 0.116 0.819 0.387 1.226 0.639 0.516 0.319 1.066 0.52 1.657 0.601 0.63 0.086 0.614 1.169-0.02 1.082-0.573-0.079-1.115-0.219-1.644-0.477-0.51-0.249-0.953-0.67-1.502-0.808-0.625-0.157-0.339-1.193 0.283-1.037z" fill="#FCD3C0"/>
				<path d="m616.84 251.36c0.964 0.401 1.943 0.74 2.943 1.02 0.716 0.2 0.387 1.396-0.327 1.196-0.999-0.279-1.979-0.619-2.943-1.02-0.686-0.285-0.364-1.484 0.327-1.196z" fill="#FCD3C0"/>
				<path d="m613.65 248.51c1.445-1.015 3.737 0.4 5.064 1.104 0.803 0.427 0.062 1.709-0.738 1.285-0.82-0.435-2.77-1.684-3.663-1.057-0.754 0.529-1.412-0.806-0.663-1.332z" fill="#FCD3C0"/>
				<path d="m567.68 216.25s-14.226 1.539-23.575 24.417l3.345 2.973s8.652-16.009 21.314-19.966l-1.084-7.424z" fill="#FCD3C0"/>
			<path d="m545.28 239.25c-1.447 0.276-3.318 1.478-3.577 3.53-0.258 2.052 0.936 3.646 2.642 3.9s3.297-1.204 3.556-3.255c0.257-2.053-0.926-4.499-2.621-4.175z" fill="#FCD3C0"/>
				<path d="m542.58 243.55c-0.774 0.783-1.638 2.41-1.385 3.572 0.147 0.678-0.841 0.815-0.986 0.143-0.344-1.584 0.735-3.53 1.77-4.577 0.468-0.474 1.066 0.391 0.601 0.862z" fill="#FCD3C0"/>
				<path d="m543.55 245.58c-0.134 0.472-0.489 0.783-0.651 1.235-0.172 0.477-0.236 1.034-0.259 1.543-0.031 0.695-1.016 0.544-0.986-0.147 0.025-0.556 0.124-1.113 0.276-1.645 0.152-0.53 0.559-0.896 0.705-1.412 0.189-0.663 1.102-0.234 0.915 0.426z" fill="#FCD3C0"/>
				<path d="m544.88 245.74c-0.035 0.517-0.227 0.939-0.393 1.415-0.211 0.604-0.31 1.225-0.294 1.872 0.018 0.69-0.969 0.839-0.986 0.143-0.016-0.628 0.029-1.231 0.183-1.839 0.149-0.586 0.464-1.127 0.505-1.738 0.046-0.694 1.032-0.545 0.985 0.147z" fill="#FCD3C0"/>
				<path d="m546.27 246.1c-0.217 1.097-0.376 2.201-0.477 3.318-0.073 0.8-1.209 0.629-1.137-0.169 0.101-1.116 0.26-2.221 0.477-3.318 0.154-0.78 1.293-0.617 1.137 0.169z" fill="#FCD3C0"/>
				<path d="m548.37 242.24c1.143 1.398 0.207 4.076-0.23 5.61-0.265 0.929-1.544 0.328-1.28-0.597 0.271-0.948 1.108-3.234 0.402-4.098-0.597-0.729 0.516-1.64 1.108-0.915z" fill="#FCD3C0"/>
			<path d="m573.64 305.84s8.791 6.221 5.035 9.245c-2.853 2.298-8.85-2.654-10.388-7.579-0.692-2.217 0.174-2.825 0.582-3.654 1.26-2.56 2.261-0.207 2.261-0.207l2.51 2.195z" fill="#8B181B"/>
			<path d="m574.74 304.48s6.888 6.669 4.766 9.764-8.58-3.173-10.118-8.098 2.842-3.861 2.842-3.861l2.51 2.195z" fill="#EC2227"/>
			<path d="m586 279.91s-6.896 18.578-12.104 25.271l-3.339-0.917s4.886-16.556 5.918-23.911l9.525-0.443z" fill="#FCD3C0"/>
			<path d="m573.95 305.11s3.153 3.044 3.312 5.202-2.931 0.114-2.931 0.114-2.58-2.062-3.775-6.161l3.394 0.845z" fill="#FCD3C0"/>
			<path d="m576.96 308.61s-1.725-1.02-3.716 0.696c0 0-0.992 0.086-0.81-1.067 0 0 2.454-1.644 4.164-0.564 0-1e-3 0.72 0.431 0.362 0.935z" fill="#EC2227"/>
			<path d="m542.8 289.54s3 10.928-1.663 10.591c-3.543-0.256-5.168-8.25-3.41-13.087 0.792-2.178 1.814-2.032 2.618-2.376 2.484-1.065 1.847 1.433 1.847 1.433l0.608 3.439z" fill="#8B181B"/>
			<path d="m544.46 289.28s1.282 9.931-2.178 10.797-4.653-8.456-2.895-13.293 4.465-0.944 4.465-0.944l0.608 3.44z" fill="#EC2227"/>
			<path d="m567.66 278.47s-16.315 9.312-24.268 10.75l-2-3.049s13.579-9.184 18.743-14.066l7.525 6.365z" fill="#FCD3C0"/>
			<path d="m543.48 289.2s0.592 4.539-0.571 6.296-2.302-1.976-2.302-1.976-0.74-3.387 0.788-7.353l2.085 3.033z" fill="#FCD3C0"/>
			<path d="m543.68 293.99s-0.708-1.991-3.247-2.084c0 0-0.807-0.632 0.017-1.384 0 0 2.849 0.473 3.51 2.499 0 1e-3 0.292 0.836-0.28 0.969z" fill="#EC2227"/>
		<polygon points="593.38 224.23 573.13 218.91 578.47 190.58 598.26 194.41" fill="#FCD3C0"/>
		<path d="m578.39 190.56l-3.245 17.649c2.728 2.597 5.661 4.299 8.854 4.916 3.955 0.765 7.733 0.388 11.327-0.829l2.927-17.895-19.863-3.841z" fill="#F7C3AC"/>
		<path d="m583.59 121.52c-26.436 4.115-33.71 29.805-31.578 45.56 2.246 18.684 15.501 39.575 31.614 42.691 16.703 3.23 30.331-4.403 40.394-16.518 12.671-15.254 16.604-46.092-8.209-64.307-12.502-9.179-32.221-7.426-32.221-7.426z" fill="#FCD3C0"/>
			<path d="m585.14 171.49c-2.95 0.791-5.267 3.053-4.612 6.601 0.555 3.009 4.334 4.067 6.608 3.168 1.092-0.432 0.793-1.164-0.282-0.739-1.532 0.606-3.594-1.335-4.283-2.612-1.214-2.248 0.274-4.93 2.358-5.49 0.806-0.215 1.509-1.276 0.211-0.928z" fill="#F0B297"/>
				<path d="m563.16 158.77c-0.804-0.655-1.481-1.386-1.364-2.562 0.044-0.443-0.893-0.971-0.942-0.478-0.161 1.617 0.851 2.705 1.953 3.603 0.522 0.425 0.867-0.144 0.353-0.563z" fill="#F0B297"/>
				<path d="m561.56 160.22c-0.971-0.388-1.742-1.337-1.892-2.464-0.071-0.538-1.064-0.151-1.005 0.297 0.177 1.333 1.041 2.45 2.202 2.913 0.382 0.152 1.209-0.542 0.695-0.746z" fill="#F0B297"/>
					<path d="m575.31 166.39c-0.717 4.384-4.567 7.307-8.601 6.527-4.032-0.78-6.721-4.967-6.004-9.351s4.569-7.308 8.601-6.529c4.034 0.78 6.721 4.969 6.004 9.353z" fill="#fff"/>
					<path d="m568.03 173.63c-0.468 0-0.94-0.046-1.412-0.136-4.319-0.835-7.208-5.335-6.441-10.031 0.373-2.275 1.538-4.257 3.28-5.579 1.744-1.324 3.856-1.826 5.948-1.425 2.092 0.405 3.914 1.672 5.131 3.566 1.216 1.895 1.681 4.191 1.309 6.467-0.373 2.275-1.537 4.256-3.279 5.578-1.351 1.026-2.923 1.56-4.536 1.56zm-0.033-16.133c-1.394 0-2.754 0.462-3.922 1.349-1.506 1.144-2.513 2.856-2.835 4.823-0.664 4.059 1.834 7.949 5.567 8.67 1.809 0.349 3.634-0.087 5.141-1.229 1.506-1.144 2.513-2.856 2.834-4.823 0.322-1.966-0.08-3.951-1.131-5.589-1.052-1.638-2.627-2.733-4.435-3.082-0.406-0.08-0.814-0.119-1.219-0.119z" fill="#F0B297"/>
				<path d="m573.1 166.05c-0.5 3.056-3.184 5.096-5.995 4.552-2.816-0.545-4.688-3.466-4.189-6.522 0.5-3.059 3.184-5.097 6-4.552 2.812 0.544 4.685 3.463 4.184 6.522z" fill="#675A5E"/>
				<path d="m570.45 165.8c-0.207 1.267-1.409 2.095-2.686 1.848s-2.145-1.476-1.938-2.743c0.208-1.268 1.412-2.096 2.689-1.849s2.142 1.476 1.935 2.744z" fill="#010101"/>
				<path d="m616.96 168.39c0.675 0.276 1.425 0.43 2.127 0.194 0.74-0.248 1.41-0.934 1.72-1.694 9e-3 -0.023-0.976-0.393-1.043-0.228-0.187 0.458-0.478 0.824-0.828 1.145-0.215 0.197-0.461 0.345-0.717 0.467-0.086 0.039-0.174 0.071-0.264 0.098-0.153 0.051-0.448-4e-3 -0.081 0.146-0.227-0.093-0.469-0.147-0.709-0.181-0.033-5e-3 -0.404-0.028-0.205 0.053z" fill="#F0B297"/>
				<path d="m618.08 170.7c1.277 0.413 2.366-0.018 3.313-0.987 0.447-0.457-0.331-1.247-0.779-0.789-0.693 0.71-1.436 1.036-2.374 0.733-0.664-0.215-0.76 0.849-0.16 1.043z" fill="#F0B297"/>
					<path d="m618.54 174.72c-0.717 4.385-4.569 7.307-8.601 6.527-4.034-0.78-6.723-4.967-6.005-9.352 0.717-4.384 4.569-7.308 8.603-6.527 4.031 0.78 6.72 4.968 6.003 9.352z" fill="#fff"/>
					<path d="m611.25 181.96c-0.468 0-0.94-0.045-1.411-0.135-4.32-0.836-7.21-5.336-6.442-10.032 0.769-4.697 4.908-7.837 9.228-7.002 2.093 0.405 3.915 1.671 5.131 3.566 1.217 1.895 1.682 4.191 1.31 6.465-0.373 2.276-1.538 4.257-3.28 5.579-1.35 1.025-2.923 1.559-4.536 1.559zm-0.021-16.131c-3.269 0-6.177 2.55-6.769 6.169-0.665 4.059 1.834 7.949 5.568 8.671 1.809 0.35 3.635-0.087 5.141-1.229 1.506-1.144 2.513-2.856 2.835-4.823v1e-3c0.321-1.967-0.08-3.951-1.132-5.59-1.051-1.638-2.626-2.732-4.435-3.082-0.406-0.079-0.809-0.117-1.208-0.117z" fill="#F0B297"/>
				<path d="m616.39 174.3c-0.499 3.053-3.182 5.089-5.99 4.546-2.809-0.543-4.681-3.46-4.181-6.513 0.499-3.053 3.181-5.087 5.99-4.544 2.808 0.543 4.681 3.458 4.181 6.511z" fill="#675A5E"/>
				<path d="m613.74 174.05c-0.207 1.266-1.407 2.092-2.681 1.846-1.276-0.247-2.142-1.473-1.935-2.739s1.409-2.092 2.685-1.845c1.274 0.246 2.138 1.472 1.931 2.738z" fill="#010101"/>
			<path d="m610.57 159.49c4.471 0.868 7.631 3.262 10.172 6.628 0.91 1.203 4.787 0.062 3.691-1.391-2.826-3.743-6.607-6.39-11.542-7.349-1.01-0.196-2.147-0.039-2.852 0.604-0.566 0.517-0.389 1.33 0.531 1.508z" fill="#010101"/>
			<path d="m573.34 151.68c-4.272-1.672-8.126-1.256-11.903 0.372-1.349 0.581-4.169-2.568-2.539-3.27 4.196-1.808 8.707-2.113 13.425-0.267 0.966 0.377 1.877 1.143 2.185 2.106 0.247 0.772-0.287 1.403-1.168 1.059z" fill="#010101"/>
		<path d="m565.3 164.2c-0.156 0.956-0.996 1.593-1.875 1.423-0.878-0.17-1.464-1.082-1.308-2.038s0.995-1.592 1.874-1.422c0.879 0.169 1.466 1.082 1.309 2.037z" fill="#fff"/>
		<path d="m564.89 168.13c-0.089 0.544-0.567 0.907-1.068 0.81-0.5-0.097-0.834-0.617-0.745-1.161s0.568-0.907 1.068-0.81 0.834 0.617 0.745 1.161z" fill="#fff"/>
		<path d="m608.64 172.58c-0.156 0.956-0.996 1.593-1.875 1.423-0.878-0.17-1.464-1.082-1.308-2.038 0.156-0.955 0.995-1.592 1.874-1.422 0.879 0.169 1.465 1.082 1.309 2.037z" fill="#fff"/>
		<path d="m608.22 176.51c-0.089 0.544-0.568 0.907-1.068 0.81s-0.834-0.617-0.745-1.161 0.567-0.907 1.068-0.811c0.5 0.098 0.834 0.617 0.745 1.162z" fill="#fff"/>
		<path d="m587.25 123.84s-17.287-1.073-28.502 18.07c1e-3 0 11.441-13.313 28.502-18.07z" fill="#fff" opacity=".09"/>
			<path d="m581.66 200.42c1.957-0.843 4.071-0.635 5.849 0.592 0.539 0.371 1.134-0.495 0.593-0.868-2.091-1.441-4.544-1.703-6.847-0.711-0.596 0.255-0.191 1.243 0.405 0.987z" fill="#F0B297"/>
			<path d="m570.53 180.83s12.556 18.319 33.998 5.855c0 0-7.755 10.755-19.759 8.688-9.793-1.686-14.239-14.543-14.239-14.543z" fill="#010101"/>
				<defs>
					<path id="y" d="m570.53 180.83s12.556 18.319 33.998 5.855c0 0-7.755 10.755-19.759 8.688-9.793-1.686-14.239-14.543-14.239-14.543z"/>
				</defs>
				<clipPath id="q">
					<use overflow="visible" xlink:href="#y"/>
				</clipPath>
				<path d="m579.9 193.62s4.105-1.868 6.131 0.15c0 0 4.089-0.988 5.39 1.834 0-1e-3 -7.079 2.019-11.521-1.984z" clip-path="url(#q)" fill="#ED583A"/>
		<path d="m566.07 129.05s43.233-17.287 67.045 26.228c0 0-1.403-25.455-26.85-33.956-25.446-8.502-40.195 7.728-40.195 7.728z" fill="#231F20"/>
		<path d="m556.97 190.9c-3.138-0.26-6.348-0.94-9.389-0.056-1.757 0.511-3.358 1.523-4.833 2.68-4.899 3.839-8.531 9.246-12.755 13.939s-9.516 8.887-15.551 9.137c3.824 1.615 7.761 3.021 11.838 3.516 2.395 0.29 4.813 0.262 7.221 0.167 3.802-0.15 7.633-0.474 11.281-1.648s7.132-3.262 9.552-6.454c1.893-2.497 3.056-5.549 3.987-8.622 1.097-3.621 1.896-7.649 0.56-11.173l-1.911-1.486z" fill="#231F20"/>
		<path d="m558.88 192.38l-1.911-1.484c-0.326-0.027-0.653-0.06-0.981-0.094 0.431 2.939-0.249 6.079-1.122 8.961-0.931 3.073-2.094 6.125-3.987 8.622-2.42 3.192-5.904 5.279-9.552 6.454s-7.479 1.498-11.281 1.648c-2.408 0.095-4.826 0.123-7.221-0.167-1.257-0.152-2.499-0.399-3.729-0.705-1.495 0.561-3.047 0.913-4.654 0.98 3.824 1.615 7.761 3.021 11.838 3.515 2.395 0.29 4.813 0.262 7.221 0.167 3.802-0.15 7.633-0.474 11.281-1.648 3.648-1.175 7.132-3.262 9.552-6.454 1.893-2.497 3.056-5.549 3.987-8.622 1.097-3.621 1.896-7.649 0.559-11.173z" fill="#161315"/>
		<path d="m615.62 204.4c2.966 1.146 6.154 1.938 8.604 4.086 1.416 1.241 2.502 2.873 3.42 4.58 3.048 5.669 4.352 12.212 6.464 18.364 2.111 6.152 5.386 12.318 10.81 15.206-4.098-0.209-8.221-0.658-12.133-2.003-2.298-0.79-4.498-1.881-6.664-3.03-3.42-1.813-6.801-3.797-9.698-6.478s-5.304-6.125-6.326-10.109c-0.799-3.117-0.725-6.419-0.431-9.639 0.347-3.794 1.118-7.828 3.654-10.461l2.3-0.516z" fill="#231F20"/>
		<path d="m612.83 205.62c2.966 1.146 6.154 1.938 8.604 4.086 1.416 1.241 2.502 2.873 3.42 4.58 3.048 5.669 4.352 12.212 6.464 18.364 1.765 5.143 4.348 10.288 8.315 13.527 1.754 0.231 3.521 0.372 5.284 0.462-5.424-2.888-8.699-9.054-10.81-15.206s-3.416-12.695-6.464-18.364c-0.918-1.707-2.004-3.338-3.42-4.58-2.45-2.148-5.638-2.94-8.604-4.086l-2.3 0.514c-0.224 0.233-0.43 0.48-0.628 0.734l0.139-0.031z" fill="#161315"/>
			<path d="m552.7 191.82c1.097 0.855 2.131 1.788 3.079 2.835 0.45 0.496 0.879 1.011 1.279 1.555 0.27 0.367 0.934 1.04 1.009 1.514 0.384 2.43 3.951 2.23 3.561-0.234-0.291-1.841-1.378-3.192-2.483-4.568-1.204-1.499-2.559-2.813-4.046-3.973-1.848-1.44-4.262 1.418-2.399 2.871z" fill="#FBB041"/>
			<path d="m619.93 202.66c-2.038 0.198-4.202 0.302-5.842 1.769-1.661 1.485-3.191 3.171-4.25 5.219-1.127 2.181 2.046 3.955 3.168 1.783 0.757-1.465 1.907-2.705 3.082-3.788 1.11-1.023 2.661-0.976 4.057-1.112 2.28-0.22 2.081-4.093-0.215-3.871z" fill="#FBB041"/>
		<g opacity=".09">
			<path d="m629.52 161.01c-9.235-2.432-18.372-8.969-25.721-15.518-2.336-2.081-4.308-4.399-5.945-7.158-1.638-2.759-1.378-3.728-1.378-3.728-0.597-0.911-1.205-1.848-1.47-2.929-0.266-1.081-0.12-2.353 0.626-3.123 0.099-0.102 0.207-0.187 0.318-0.266-0.275-0.057-0.549-0.122-0.824-0.174-1.261-0.241-2.726-0.361-3.655 0.597-0.746 0.77-0.892 2.042-0.626 3.123 0.265 1.081 0.873 2.018 1.47 2.929 0 0-0.26 0.969 1.378 3.728s3.61 5.077 5.945 7.158c7.349 6.549 16.486 13.086 25.721 15.518 4.071 1.072 8.399 1.278 12.745 0.917-2.93-0.022-5.817-0.345-8.584-1.074z" fill="#010101"/>
		</g>
		<path d="m597.56 130.98s-6.215 28.309-45.894 31.1c0 0-1.452-45.009 45.894-31.1z" fill="#010101" opacity=".09"/>
		<path d="m594.29 232.54c2.363-5.27 5.309-8.3 5.379-8.82-1.652-1.885-5.619-3.591-5.619-3.591-3.215 2.696-11.644 1.222-11.644 1.222s-6.628-1.993-8.561-5.874c0 0-4.725-0.397-6.938 0.598 0 0 1.573 7.02-0.072 11.663 0 0-3.296 16.24-6.435 21.752 0 0 5.831 2.114 14.884 4.317l-3e-3 0.014c0.262 0.059 0.512 0.113 0.77 0.17 0.257 0.061 0.506 0.123 0.767 0.184l2e-3 -0.014c9.097 1.976 15.917 2.775 15.917 2.775-0.815-6.423 1.553-24.396 1.553-24.396z" fill="#ED583A"/>
		<path d="m592.66 253.15c-9.302 1.406-23.014-1.103-31.38-5.743 0 0-9.633 19.607-15.052 23.47 0 0 11.187 9.011 25.803 11.302 14.5 3.037 27.784-1.495 27.784-1.495-3.957-5.579-7.155-27.534-7.155-27.534z" fill="#694892"/>
			<path d="m579.14 234.25c0.684-0.974 1.127-2.146 1.271-3.361 0.074-0.622 0.062-1.289-0.228-1.832s-0.927-0.904-1.463-0.672c-0.803 0.347-0.804 1.565-0.666 2.492 0.182 1.215 0.363 2.431 0.545 3.646-0.526-1.379-1.741-2.373-3.075-2.728-0.693-0.185-1.463-0.201-2.081 0.188-0.617 0.389-1.002 1.272-0.705 1.978 0.247 0.587 0.853 0.88 1.425 1.052 1.199 0.361 2.476 0.41 3.695 0.142-1.2 1.04-2.036 2.566-2.304 4.209-0.138 0.847-0.114 1.78 0.337 2.487 0.452 0.706 1.435 1.046 2.068 0.53 0.398-0.325 0.564-0.88 0.684-1.405 0.392-1.725 0.518-3.521 0.371-5.29 0.58 1.709 1.226 3.518 2.574 4.6 0.767 0.616 2.032 0.84 2.546-0.034 0.326-0.554 0.168-1.32-0.209-1.834-0.378-0.514-0.929-0.833-1.465-1.138-0.977-0.556-1.955-1.113-2.932-1.669 0.909-0.054 1.819-0.108 2.728-0.162 1-0.059 2.13-0.189 2.743-1.05 0.183-0.258 0.306-0.595 0.227-0.909-0.12-0.479-0.636-0.693-1.091-0.741-1.539-0.161-2.982 0.745-4.303 1.617" fill="#fff"/>
				<path d="m580.48 235c1.336-2.19 2.764-7.494-0.89-8.262-4.204-0.884-2.818 5.653-2.484 7.883 0.919-0.329 1.838-0.659 2.758-0.989-1.379-2.847-6.002-5.417-8.16-2.027-2.784 4.373 3.737 5.564 6.251 5.179-0.401-0.909-0.801-1.819-1.202-2.728-2.2 2.161-4.69 8.334-0.58 9.967 4.344 1.726 4.506-5.64 4.346-8.437-0.975 0.204-1.95 0.408-2.924 0.613 0.934 2.704 3.675 8.353 7.121 5.683 4.065-3.15-2.612-6.652-4.492-7.723-0.2 1.027-0.4 2.053-0.6 3.08 2.046-0.121 7.684 0.073 7.107-3.849-0.61-4.147-5.836-1.607-7.712-0.393-1.664 1.077-0.022 3.811 1.637 2.737 0.678-0.438 3.856-1.319 2.125-1.965-0.812-0.303-2.471 0.159-3.339 0.211-1.488 0.088-1.905 2.337-0.6 3.08 0.38 0.217 3.079 2.173 3.466 1.986-0.297 0.143-1.692-3.377-1.863-3.875-0.586-1.698-3.033-1.287-2.924 0.613 0.035 0.603 0.325 4.523-0.341 4.853-0.204 0.101 0.116-1.993 0.164-2.114 0.366-0.915 0.961-1.612 1.632-2.271 0.952-0.936 0.053-2.92-1.202-2.728-0.786 0.176-1.58 0.21-2.382 0.103-1.039-0.159-1.219-0.234-0.542-0.224 1.195 0.282 1.896 0.769 2.496 2.009 0.683 1.411 2.995 0.6 2.758-0.989-0.144-0.967-0.103-3.26-0.579-4.012-0.379-0.599-0.384-0.078-0.655 0.492-0.405 0.848-0.54 1.746-1.058 2.595-1.069 1.751 1.61 3.235 2.668 1.502z" fill="#fff"/>
		<path d="m580.78 235.9c-0.234 1.202-1.32 1.971-2.426 1.716s-1.812-1.436-1.578-2.638 1.32-1.971 2.426-1.716c1.105 0.254 1.812 1.436 1.578 2.638z" fill="#ECBA38"/>
		<path d="m598 126.32s-6.696 28.345-46.375 31.135c0 0 1.588-43.507 46.375-31.135z" fill="#231F20"/>
		<path d="m594.87 135.08c1.453 2.879 3.268 5.343 5.461 7.6 6.901 7.101 15.587 14.329 24.639 17.47s19.716 1.949 28.976-0.363c-6.812-0.793-13.951-1.715-19.558-5.995-2.971-2.268-3.905-6.399-6.369-9.297-8.082-9.508-19.488-16.513-31.039-19.656-1.242-0.338-2.696-0.571-3.685 0.313-0.795 0.71-1.023 1.968-0.829 3.066 0.194 1.099 0.739 2.08 1.274 3.036 0 0-0.322 0.947 1.13 3.826z" fill="#231F20"/>
			<defs>
				<path id="z" d="m592.66 253.15c-9.302 1.406-23.014-1.103-31.38-5.743 0 0-9.633 19.607-15.052 23.47 0 0 11.187 9.011 25.803 11.302 14.5 3.037 27.784-1.495 27.784-1.495-3.957-5.579-7.155-27.534-7.155-27.534z"/>
			</defs>
			<clipPath id="b">
				<use overflow="visible" xlink:href="#z"/>
			</clipPath>
			<g clip-path="url(#b)">
				<path d="m554.97 251.35c5.941 5.154 13.33 7.551 20.688 9.138 7.535 1.625 15.179 1.914 22.669-0.109 2.227-0.602 1.098-4.281-1.123-3.682-6.87 1.855-13.907 1.484-20.807-3e-3 -6.708-1.446-13.599-3.504-19.028-8.214-1.789-1.553-4.196 1.311-2.399 2.87z" fill="#fff"/>
			</g>
			<g clip-path="url(#b)">
				<path d="m553 256.69c5.98 4.871 13.522 6.659 20.733 8.164 8.098 1.69 16.317 2.393 24.554 1.92 1.145-0.066 1.042-2.002-0.108-1.936-7.638 0.438-15.251-0.144-22.777-1.618-7.256-1.421-15.187-3.065-21.203-7.966-0.912-0.743-2.118 0.688-1.199 1.436z" fill="#fff"/>
			</g>
			<g clip-path="url(#b)">
				<path d="m546.08 268.29c8.051 6.013 17.238 10.034 26.916 11.576 10.257 1.634 20.322-0.096 30.41-2.15 1.668-0.34 1.532-3.249-0.161-2.904-9.836 2.003-19.687 3.784-29.695 2.208-9.464-1.49-18.374-5.438-26.24-11.314-1.417-1.059-2.631 1.537-1.23 2.584z" fill="#fff"/>
			</g>
	<path d="m400.21 283.85c0 5.607-19.485 7.642-39.298 7.642s-39.298-1.901-39.298-7.507c0-5.607 19.082-10.818 38.894-10.818 19.813 0 39.702 5.077 39.702 10.683z" fill="#010101" opacity=".13"/>
	<path d="m493.26 300.1c-0.831 5.533-20.363 4.128-39.917 0.656s-38.502-8.762-37.671-14.295 20.436-7.333 39.99-3.862c19.553 3.473 38.429 11.968 37.598 17.501z" fill="#010101" opacity=".13"/>
	<path d="m517.84 303.79c0.856-5.529 20.381-4.02 39.919-0.445s38.463 8.965 37.607 14.494-20.468 7.225-40.006 3.65-38.376-12.17-37.52-17.699z" fill="#010101" opacity=".13"/>
		<path d="m363.43 80.644c1.372-2.703 4.061-4.559 6.894-4.76-0.905 0.564-1.656 1.416-2.136 2.424 1.97-0.594 4.035-0.817 6.075-0.654-1.313-0.012-2.605 0.813-3.234 2.067 2.155-0.55 4.422-0.577 6.588-0.08-1.407 0.1-2.774 0.767-3.777 1.845-0.154 0.165-0.307 0.345-0.51 0.425-0.203 0.081-0.428 0.051-0.643 0.016-3.069-0.489-6.13-1.545-9.21-1.148l-0.047-0.135z" fill="#9C6B50"/>
					<path d="m342.24 193.24s-13.626 4.701-30.532-12.295l1.991-4.168s13.768 10.986 26.837 9.178l1.704 7.285z" fill="#FCD3C0"/>
				<path d="m313.3 181.74c-1.43 0.369-3.586 0.069-4.569-1.705s-0.466-3.751 1.008-4.718c1.474-0.966 3.466-0.312 4.45 1.462 0.983 1.774 0.786 4.529-0.889 4.961z" fill="#FCD3C0"/>
					<path d="m309.25 178.95c-0.996-0.387-2.381-1.51-2.572-2.686-0.111-0.686-1.068-0.387-0.958 0.292 0.26 1.602 1.959 2.926 3.29 3.444 0.604 0.234 0.838-0.818 0.24-1.05z" fill="#FCD3C0"/>
					<path d="m309.41 176.67c-0.295-0.376-0.734-0.51-1.047-0.854-0.331-0.364-0.593-0.849-0.799-1.306-0.281-0.625-1.132-0.063-0.852 0.558 0.225 0.5 0.519 0.969 0.852 1.392 0.332 0.422 0.839 0.583 1.161 0.994 0.414 0.529 1.098-0.258 0.685-0.784z" fill="#FCD3C0"/>
					<path d="m310.58 175.94c-0.22-0.46-0.55-0.765-0.876-1.131-0.413-0.464-0.73-0.992-0.95-1.593-0.235-0.641-1.195-0.354-0.958 0.292 0.214 0.584 0.474 1.119 0.837 1.611 0.35 0.474 0.836 0.836 1.095 1.379 0.296 0.618 1.146 0.057 0.852-0.558z" fill="#FCD3C0"/>
					<path d="m311.72 175.02c-0.598-0.914-1.146-1.86-1.645-2.842-0.357-0.703-1.34-0.058-0.983 0.644 0.499 0.982 1.046 1.928 1.645 2.842 0.426 0.65 1.412 0.011 0.983-0.644z" fill="#FCD3C0"/>
					<path d="m315.06 177.66c0.542-1.776-1.292-3.833-2.251-5.054-0.581-0.739-1.537 0.363-0.959 1.099 0.593 0.755 2.193 2.494 1.859 3.591-0.284 0.926 1.07 1.284 1.351 0.364z" fill="#FCD3C0"/>
					<path d="m386.02 196.11s13.204 5.959 31.392-9.393l-1.654-4.339s-14.587 9.657-27.464 6.633l-2.274 7.099z" fill="#FCD3C0"/>
				<path d="m415.76 187.36c1.395 0.501 3.567 0.404 4.687-1.271s0.761-3.694-0.631-4.795-3.429-0.635-4.549 1.04c-1.12 1.676-1.141 4.439 0.493 5.026z" fill="#FCD3C0"/>
					<path d="m420.01 184.96c1.023-0.292 2.491-1.281 2.775-2.435 0.165-0.673 1.095-0.286 0.931 0.381-0.386 1.572-2.183 2.732-3.551 3.123-0.619 0.176-0.77-0.894-0.155-1.069z" fill="#FCD3C0"/>
					<path d="m420.04 182.67c0.323-0.347 0.771-0.439 1.111-0.753 0.359-0.332 0.658-0.79 0.899-1.226 0.33-0.597 1.132 0.043 0.805 0.636-0.264 0.477-0.593 0.917-0.959 1.307-0.364 0.389-0.882 0.502-1.236 0.882-0.454 0.487-1.073-0.361-0.62-0.846z" fill="#FCD3C0"/>
					<path d="m418.93 181.84c0.255-0.438 0.609-0.711 0.962-1.044 0.448-0.423 0.806-0.92 1.073-1.498 0.285-0.617 1.218-0.241 0.931 0.381-0.259 0.562-0.561 1.07-0.961 1.527-0.386 0.44-0.899 0.754-1.2 1.271-0.344 0.587-1.147-0.051-0.805-0.637z" fill="#FCD3C0"/>
					<path d="m417.86 180.82c0.668-0.854 1.289-1.746 1.864-2.678 0.412-0.667 1.339 0.067 0.928 0.734-0.575 0.932-1.195 1.823-1.864 2.678-0.475 0.607-1.407-0.121-0.928-0.734z" fill="#FCD3C0"/>
					<path d="m414.33 183.13c-0.399-1.82 1.59-3.698 2.643-4.825 0.637-0.682 1.503 0.505 0.868 1.184-0.651 0.696-2.383 2.279-2.136 3.404 0.208 0.95-1.168 1.181-1.375 0.237z" fill="#FCD3C0"/>
				<path d="m341.48 275.61s8.289 6.988 4.317 9.665c-3.018 2.034-8.619-3.439-9.778-8.485-0.522-2.272 0.388-2.8 0.857-3.589 1.45-2.438 2.269-4e-3 2.269-4e-3l2.335 2.413z" fill="#5C8F9A"/>
				<path d="m342.69 274.35s6.358 7.265 4.008 10.158c-2.35 2.894-8.31-3.932-9.469-8.978s3.126-3.592 3.126-3.592l2.335 2.412z" fill="#7CBECC"/>
				<path d="m355.77 250.87s-8.283 17.896-13.981 24.099c0 0-0.582 0.829-1.679 0.382s-1.494-1.446-1.494-1.446 6.041-16.21 7.627-23.448l9.527 0.413z" fill="#FCD3C0"/>
					<path d="m345.28 281.1c-1.074-0.304-2.163-0.132-3.117 0.482-0.551 0.355-1.043-0.585-0.491-0.941 1.17-0.754 2.545-0.96 3.861-0.588 0.621 0.177 0.367 1.223-0.253 1.047z" fill="#fff"/>
					<path d="m344.46 279.26c-1.236-0.512-2.424 0.058-3.517 0.701-0.562 0.331-1.056-0.609-0.491-0.941 1.304-0.767 2.789-1.417 4.26-0.806 0.594 0.246 0.346 1.294-0.252 1.046z" fill="#fff"/>
					<path d="m343.59 277.61c-1.398-0.437-2.45 0.21-3.701 0.796-0.581 0.272-1.08-0.665-0.491-0.941 1.499-0.702 2.776-1.423 4.445-0.902 0.615 0.193 0.363 1.239-0.253 1.047z" fill="#fff"/>
				<path d="m340.11 275.35c-1.097-0.447-1.494-1.446-1.494-1.446s0.766-2.057 1.823-5.026c1.889 2.017 3.35 2.398 4.204 2.387-0.987 1.448-1.953 2.722-2.854 3.703 0 0-0.582 0.829-1.679 0.382z" fill="#BDBEC0"/>
				<path d="m371.67 278.03s10.209 2.614 7.619 6.843c-1.968 3.213-9.154 0.764-12.135-3.303-1.342-1.831-0.717-2.722-0.591-3.652 0.388-2.872 2.063-1.028 2.063-1.028l3.044 1.14z" fill="#5C8F9A"/>
				<path d="m372.29 276.34s8.559 3.737 7.526 7.431c-1.032 3.694-9.061 0.176-12.043-3.891s1.471-4.679 1.471-4.679l3.046 1.139z" fill="#7CBECC"/>
				<path d="m375.22 249.08s-0.699 20.02-3.513 28.235c0 0-0.213 1.017-1.382 1.105-1.168 0.088-1.911-0.641-1.911-0.641s-0.697-17.474-2.018-24.774l8.824-3.925z" fill="#FCD3C0"/>
					<path d="m377.23 281.31c-1.094 0.209-2.018 0.856-2.651 1.847-0.366 0.572-1.172-0.062-0.806-0.634 0.777-1.214 1.949-2.023 3.288-2.278 0.63-0.122 0.799 0.944 0.169 1.065z" fill="#fff"/>
					<path d="m375.78 280c-1.32 0.092-2.183 1.148-2.931 2.226-0.385 0.555-1.193-0.077-0.806-0.634 0.893-1.286 1.996-2.548 3.568-2.657 0.633-0.045 0.808 1.021 0.169 1.065z" fill="#fff"/>
					<path d="m374.36 278.9c-1.439 0.234-2.148 1.297-3.063 2.396-0.425 0.51-1.236-0.117-0.806-0.634 1.095-1.316 1.982-2.548 3.699-2.827 0.634-0.104 0.804 0.962 0.17 1.065z" fill="#fff"/>
				<path d="m370.33 278.42c-1.168 0.088-1.911-0.641-1.911-0.641s-0.089-2.217-0.262-5.395c2.489 0.982 3.964 0.669 4.736 0.273-0.345 1.763-0.736 3.358-1.181 4.657 0 0-0.214 1.017-1.382 1.106z" fill="#BDBEC0"/>
			<path d="m319.72 138.32c1.529-4.924 7.279-5.512 9.911-1.308 1.391 2.041 1.971 4.622 2.667 7.03 0.619 2.135 1.54 4.593 1.524 6.866-0.01 1.24-0.944 3.144-2.239 3.232-2.416 0.164-3.455-3.158-4.327-4.998-1.32-2.781-4.589-3.245-6.378-5.553-1.087-1.398-1.715-3.477-1.158-5.269z" fill="#FCD3C0"/>
			<polygon points="373.27 193.15 352.57 190.59 354.65 161.76 374.72 162.9" fill="#FCD3C0"/>
			<path d="m354.57 161.76l-1.214 17.949c3.002 2.21 6.106 3.505 9.345 3.689 4.012 0.228 7.718-0.654 11.146-2.344l0.871-18.151-20.148-1.143z" fill="#F7C3AC"/>
			<path d="m351.88 92.547c-25.765 7.637-30.064 34.107-26.157 49.454 4.353 18.239 19.881 37.188 36.224 38.115 16.942 0.961 29.598-8.445 38.206-21.82 10.84-16.84 11.236-47.97-15.456-62.711-13.448-7.427-32.817-3.038-32.817-3.038z" fill="#FCD3C0"/>
				<path d="m359.1 141.92c-2.837 1.181-4.879 3.737-3.826 7.17 0.893 2.912 4.763 3.454 6.918 2.256 1.034-0.576 0.655-1.262-0.364-0.695-1.451 0.807-3.718-0.842-4.547-2.016-1.46-2.067-0.289-4.929 1.716-5.764 0.775-0.324 1.351-1.471 0.103-0.951z" fill="#F0B297"/>
						<path d="m348.76 138.18c-0.213 4.447-3.702 7.865-7.793 7.633-4.09-0.232-7.234-4.026-7.021-8.473s3.703-7.866 7.793-7.634c4.092 0.231 7.234 4.026 7.021 8.474z" fill="#fff"/>
						<path d="m341.37 146.41c-0.14 0-0.282-4e-3 -0.424-0.012-2.122-0.12-4.074-1.132-5.497-2.849-1.422-1.717-2.145-3.932-2.034-6.24 0.229-4.764 4-8.436 8.36-8.189 2.123 0.12 4.075 1.133 5.498 2.849 1.422 1.717 2.144 3.933 2.033 6.241-0.11 2.307-1.041 4.43-2.62 5.976-1.474 1.444-3.347 2.224-5.316 2.224zm-0.015-16.128c-3.629 0-6.672 3.103-6.864 7.09-0.096 1.995 0.528 3.91 1.758 5.394s2.917 2.358 4.752 2.462c1.826 0.11 3.597-0.575 4.962-1.912s2.169-3.171 2.264-5.166c0.096-1.995-0.528-3.91-1.758-5.394-1.229-1.485-2.917-2.36-4.752-2.464-0.12-7e-3 -0.242-0.01-0.362-0.01z" fill="#F0B297"/>
					<path d="m346.53 138.14c-0.149 3.1-2.581 5.485-5.432 5.323-2.856-0.162-5.047-2.809-4.898-5.909 0.149-3.103 2.581-5.486 5.437-5.324 2.851 0.162 5.041 2.807 4.893 5.91z" fill="#8D5535"/>
					<path d="m343.87 138.25c-0.062 1.285-1.16 2.269-2.455 2.195-1.295-0.073-2.296-1.176-2.234-2.461 0.062-1.286 1.163-2.27 2.458-2.196 1.294 0.073 2.292 1.175 2.231 2.462z" fill="#010101"/>
						<path d="m392.61 140.64c-0.213 4.448-3.703 7.865-7.793 7.633-4.092-0.232-7.236-4.025-7.022-8.473 0.213-4.447 3.703-7.866 7.795-7.633 4.089 0.232 7.233 4.026 7.02 8.473z" fill="#fff"/>
						<path d="m385.21 148.87c-0.141 0-0.282-4e-3 -0.424-0.012-2.123-0.12-4.075-1.132-5.498-2.849-1.422-1.717-2.145-3.933-2.034-6.241 0.228-4.764 3.97-8.433 8.361-8.188 4.381 0.249 7.76 4.327 7.531 9.09-0.11 2.307-1.041 4.43-2.62 5.977-1.473 1.443-3.348 2.223-5.316 2.223zm-0.012-16.129c-3.631 0-6.675 3.103-6.866 7.089-0.096 1.995 0.529 3.91 1.758 5.394 1.23 1.484 2.918 2.359 4.753 2.463 1.83 0.106 3.597-0.575 4.961-1.912 1.365-1.337 2.17-3.171 2.265-5.166 0.198-4.117-2.723-7.643-6.51-7.858-0.121-7e-3 -0.242-0.01-0.361-0.01z" fill="#F0B297"/>
					<path d="m390.43 140.51c-0.149 3.097-2.579 5.478-5.427 5.316-2.849-0.162-5.038-2.804-4.89-5.901 0.149-3.097 2.579-5.476 5.428-5.314 2.847 0.162 5.037 2.802 4.889 5.899z" fill="#8D5535"/>
					<path d="m387.77 140.62c-0.062 1.284-1.159 2.265-2.451 2.192-1.294-0.073-2.293-1.173-2.232-2.458 0.062-1.284 1.16-2.265 2.455-2.192 1.292 0.073 2.289 1.173 2.228 2.458z" fill="#010101"/>
				<path d="m383.75 126.3c4.535 0.261 7.944 2.211 10.847 5.211 1.04 1.072 4.758-0.581 3.505-1.876-3.23-3.334-7.282-5.453-12.289-5.742-1.024-0.059-2.135 0.25-2.762 0.983-0.503 0.588-0.234 1.371 0.699 1.424z" fill="#9C6B50"/>
				<path d="m345.52 122.42c-4.53-0.343-8.134 1.198-11.36 3.883-1.153 0.959-4.655-1.236-3.263-2.394 3.584-2.982 7.849-4.611 12.85-4.233 1.023 0.077 2.092 0.544 2.63 1.379 0.432 0.67 0.077 1.435-0.857 1.365z" fill="#9C6B50"/>
			<path d="m338.58 137.35c-0.047 0.97-0.807 1.714-1.698 1.664-0.891-0.051-1.576-0.877-1.529-1.847 0.046-0.969 0.807-1.714 1.698-1.663 0.89 0.05 1.575 0.877 1.529 1.846z" fill="#FDFBE4"/>
			<path d="m338.62 141.31c-0.026 0.552-0.46 0.976-0.968 0.947s-0.898-0.5-0.872-1.052 0.46-0.977 0.968-0.948 0.898 0.5 0.872 1.053z" fill="#FDFBE4"/>
			<path d="m382.54 139.84c-0.046 0.97-0.807 1.714-1.698 1.664s-1.576-0.877-1.529-1.847c0.046-0.969 0.807-1.714 1.698-1.663 0.89 0.051 1.575 0.877 1.529 1.846z" fill="#FDFBE4"/>
			<path d="m382.57 143.8c-0.027 0.552-0.46 0.976-0.968 0.947s-0.898-0.5-0.872-1.052 0.46-0.977 0.968-0.948c0.508 0.03 0.899 0.501 0.872 1.053z" fill="#FDFBE4"/>
			<path d="m412.73 143.8c-1.047-5.057-6.694-6.289-9.706-2.416-1.574 1.868-2.396 4.362-3.316 6.672-0.818 2.048-1.966 4.382-2.167 6.639-0.109 1.231 0.636 3.225 1.913 3.459 2.38 0.435 3.728-2.743 4.769-4.47 1.574-2.61 4.861-2.701 6.857-4.789 1.211-1.264 2.032-3.255 1.65-5.095z" fill="#FCD3C0"/>
			<path d="m357.52 254.02s-0.152-5.467 2.792-5.18c2.708 0.264 2.596 4.716 2.257 5.467 0 0 2.221 1.196 7.585 1.5s7.129-0.666 7.129-0.666 3.318-3.225 3.78-12.859l-39.576-2.244s-0.507 8.478 2 13.187c0 0 2.065 1.187 6.866 1.46 4.8 0.271 7.167-0.665 7.167-0.665z" fill="#282561"/>
			<path d="m341.49 240.04s-0.047 1.343-0.042 1.954l39.479 2.239s0.077-1.707 0.138-1.948l-39.575-2.245z" fill="#010101" opacity=".2"/>
			<polygon points="343.5 243.85 347.56 243.31 347.52 244.08" fill="#010101" opacity=".2"/>
			<polygon points="378.41 246.23 374.45 245.14 374.39 245.91" fill="#010101" opacity=".2"/>
			<path d="m352.95 185.36s8.348 9.72 20.637 1.17c0 0 10.048-1.722 19.598 2.702 0 0-6.234 8.719-8.303 11.112s-4.273 0.155-4.273 0.155l3.287 42.093-44.473-2.522 6.235-41.119s-2.453 1.376-5.286-3.08-5.947-10.991-5.947-10.991 8.652-1.79 18.525 0.48z" fill="#BDBEC0"/>
				<path d="m345.64 151.6s13.933 17.101 34.331 2.714c0 0-6.893 11.428-19.014 10.471-9.889-0.782-15.317-13.185-15.317-13.185z" fill="#010101"/>
					<defs>
						<path id="aa" d="m345.64 151.6s13.933 17.101 34.331 2.714c0 0-6.893 11.428-19.014 10.471-9.889-0.782-15.317-13.185-15.317-13.185z"/>
					</defs>
					<clipPath id="r">
						<use overflow="visible" xlink:href="#aa"/>
					</clipPath>
					<path d="m355.96 163.5s3.946-2.238 6.121-0.413c0 0 3.997-1.36 5.513 1.333-1e-3 -1e-3 -6.897 2.661-11.634-0.92z" clip-path="url(#r)" fill="#ED583A"/>
				<path d="m359.14 170.39c1.863-1.066 3.985-1.105 5.874-0.093 0.572 0.307 1.079-0.625 0.504-0.933-2.221-1.19-4.686-1.164-6.878 0.091-0.567 0.324-0.067 1.259 0.5 0.935z" fill="#F0B297"/>
			<path d="m325.56 125.77s5.05-12.608 12.654-16.242l0.64 5.788 11.969-5.699-0.303 3.889 9.443-5.729-0.611 3.736 14.758-5.15-3.206-5.428-35.13 2.462s-11.576 14.786-10.214 22.373z" fill="#010101" opacity=".18"/>
			<path d="m322.38 130.62s-1.824-48.235 37.322-50.274c47.064-2.451 50.384 35.439 50.384 35.439s1.695 11.504-0.731 20.744l-4.442 9.544s2.265-10.07 1.237-15.404c-1.028-5.333-6.773-6.246-14.791-9.927s-21.643-15.624-21.643-15.624l-10.366 6.394 0.02-6.36-8.841 8.808-0.573-6.239-9.22 5.877-1.883 1.716-2.466-6.734s-12.703 7.616-10.558 29.097l-3.449-7.057z" fill="#9C6B50"/>
			<path d="m410.09 115.78s-3.32-37.89-50.384-35.439c-0.404 0.021-0.798 0.054-1.193 0.085 42.399 0.331 45.491 35.545 45.491 35.545s0.764 5.196 0.53 11.407c0.81 0.894 1.362 1.951 1.62 3.286 1.028 5.333-1.237 15.404-1.237 15.404l4.442-9.544c2.426-9.24 0.731-20.744 0.731-20.744z" fill="#010101" opacity=".09"/>
				<defs>
					<path id="ab" d="m352.95 185.36s8.348 9.72 20.637 1.17c0 0 10.048-1.722 19.598 2.702 0 0-6.234 8.719-8.303 11.112s-4.273 0.155-4.273 0.155l3.287 42.093-44.473-2.522 6.235-41.119s-2.453 1.376-5.286-3.08-5.947-10.991-5.947-10.991 8.652-1.79 18.525 0.48z"/>
				</defs>
				<clipPath id="s">
					<use overflow="visible" xlink:href="#ab"/>
				</clipPath>
				<path d="m342.06 207.86s23.083-3.086 44.05 2.593l0.424 12.596s-28.452-5.346-46.818-2.7l2.344-12.489z" clip-path="url(#s)" fill="#D5D6D6"/>
				<path d="m453.92 201.54s-4.58 14.725-27.186 19.482l-1.911-4.212s16.293-5.564 22.688-18.088l6.409 2.818z" fill="#FCD3C0"/>
			<path d="m428.26 220.1c-0.573 1.471-2.071 3.183-3.968 2.995s-3.057-1.812-2.901-3.676 1.821-3.223 3.717-3.034c1.898 0.187 3.824 1.991 3.152 3.715z" fill="#FCD3C0"/>
				<path d="m423.8 221.99c-0.876 0.644-2.528 1.193-3.513 0.664-0.574-0.308-0.919 0.707-0.35 1.012 1.342 0.72 3.329 0.015 4.5-0.845 0.53-0.39-0.111-1.218-0.637-0.831z" fill="#FCD3C0"/>
				<path d="m422.2 220.5c-0.453 0.036-0.812 0.341-1.253 0.412-0.466 0.075-0.98 0.017-1.441-0.073-0.63-0.123-0.717 0.954-0.09 1.077 0.504 0.099 1.026 0.119 1.536 0.078 0.509-0.041 0.928-0.39 1.424-0.429 0.637-0.05 0.458-1.115-0.176-1.065z" fill="#FCD3C0"/>
				<path d="m422.36 219.05c-0.471-0.079-0.893 0.029-1.356 0.098-0.588 0.088-1.168 0.053-1.744-0.11-0.614-0.174-0.969 0.837-0.35 1.013 0.559 0.158 1.11 0.247 1.689 0.22 0.559-0.026 1.114-0.238 1.671-0.144 0.632 0.107 0.72-0.971 0.09-1.077z" fill="#FCD3C0"/>
				<path d="m422.35 217.5c-1.032-0.016-2.057-0.097-3.08-0.241-0.733-0.103-0.836 1.14-0.104 1.243 1.023 0.144 2.049 0.224 3.08 0.241 0.733 0.011 0.843-1.232 0.104-1.243z" fill="#FCD3C0"/>
				<path d="m426.28 216.14c-0.996-1.526-3.606-1.137-5.079-1.018-0.892 0.072-0.641 1.562 0.247 1.491 0.91-0.073 3.147-0.446 3.762 0.496 0.519 0.796 1.586-0.178 1.07-0.969z" fill="#FCD3C0"/>
				<path d="m489.56 201.41s13.327 5.625 16.7 30.39l-3.955 1.89s-4.393-17.944-15.618-25.443l2.873-6.837z" fill="#FCD3C0"/>
			<path d="m505.47 230.1c1.326 0.687 2.833 2.39 2.577 4.442-0.257 2.052-1.8 3.24-3.506 2.988s-2.88-2.12-2.624-4.172c0.257-2.052 1.999-4.064 3.553-3.258z" fill="#FCD3C0"/>
				<path d="m507.02 235.02c0.553 0.98 0.984 2.799 0.455 3.845-0.309 0.61 0.609 1.03 0.915 0.425 0.721-1.426 0.161-3.615-0.578-4.926-0.336-0.593-1.125 0.067-0.792 0.656z" fill="#FCD3C0"/>
				<path d="m505.58 236.7c0.013 0.494 0.278 0.897 0.323 1.379 0.048 0.51-0.027 1.065-0.131 1.562-0.141 0.679 0.845 0.82 0.986 0.146 0.113-0.543 0.155-1.109 0.139-1.665-0.016-0.555-0.318-1.026-0.332-1.566-0.018-0.695-1.004-0.547-0.985 0.144z" fill="#FCD3C0"/>
				<path d="m504.25 236.46c-0.094 0.508-0.013 0.971 0.03 1.478 0.055 0.643-3e-3 1.271-0.178 1.889-0.187 0.66 0.727 1.09 0.915 0.425 0.17-0.601 0.276-1.195 0.277-1.825 1e-3 -0.608-0.169-1.22-0.058-1.821 0.126-0.684-0.86-0.827-0.986-0.146z" fill="#FCD3C0"/>
				<path d="m502.83 236.4c-0.061 1.12-0.18 2.23-0.357 3.335-0.127 0.792 1.01 0.958 1.137 0.168 0.177-1.105 0.297-2.216 0.357-3.335 0.043-0.796-1.093-0.971-1.137-0.168z" fill="#FCD3C0"/>
				<path d="m501.75 232.07c-1.446 1.014-1.204 3.867-1.16 5.472 0.027 0.972 1.407 0.765 1.381-0.202-0.027-0.992-0.271-3.438 0.622-4.065 0.755-0.529-0.093-1.731-0.843-1.205z" fill="#FCD3C0"/>
		<path d="m431.49 108.1s-24.311 33.868-9.588 59.816c0 0 13.567 22.397 38.732 26.944 27.195 4.913-29.144-86.76-29.144-86.76z" fill="#E39232"/>
		<path d="m438.12 162.08s3.115 18.37 13.197 27.307l9.324 5.472 0.836-12.156-23.357-20.623z" fill="#C27D2B"/>
		<path d="m518.91 113.64s24.017 32.749 2.916 66.939c0 0-16.137 16.174-41.645 16.6-27.565 0.461 38.729-83.539 38.729-83.539z" fill="#E39232"/>
		<path d="m509.08 168.95s-13.183 24.045-22.38 27.769l-8.412-3.945 1.554-8.111 29.238-15.713z" fill="#C27D2B"/>
			<path d="m465.58 177.52c2.208 2.027 5.686 1.672 8.18 0.51 0.581-0.27 0.15-1.227-0.43-0.957-2.194 1.021-5.256 1.349-7.195-0.43-0.483-0.444-1.033 0.439-0.555 0.877z" fill="#F0B297"/>
			<path d="m445.13 283.9s8.777 6.244 5.015 9.258c-2.858 2.29-8.844-2.677-10.371-7.606-0.687-2.219 0.18-2.825 0.59-3.652 1.266-2.556 2.261-0.201 2.261-0.201l2.505 2.201z" fill="#DE9B38"/>
			<path d="m446.24 282.54s6.873 6.687 4.744 9.777c-2.129 3.089-8.573-3.195-10.1-8.124s2.851-3.853 2.851-3.853l2.505 2.2z" fill="#FBB041"/>
			<path d="m457.55 258s-6.938 18.56-12.16 25.239l-3.337-0.926s4.923-16.543 5.971-23.896l9.526-0.417z" fill="#FCD3C0"/>
			<path d="m445.45 283.16s3.146 3.053 3.3 5.211-2.931 0.106-2.931 0.106-2.575-2.068-3.762-6.171l3.393 0.854z" fill="#FCD3C0"/>
			<path d="m448.44 286.68s-1.723-1.024-3.717 0.686c0 0-0.992 0.084-0.808-1.069 0 0 2.457-1.637 4.165-0.553 0 0 0.719 0.433 0.36 0.936z" fill="#FBB041"/>
			<path d="m464.16 281.77s4.555 10.273-0.098 10.744c-3.535 0.358-6.306-7.255-5.275-12.334 0.464-2.286 1.495-2.319 2.238-2.797 2.297-1.479 2.032 1.096 2.032 1.096l1.103 3.291z" fill="#DE9B38"/>
			<path d="m465.76 281.23s2.714 9.584-0.576 11.036-5.827-7.547-4.796-12.626 4.271-1.701 4.271-1.701l1.101 3.291z" fill="#FBB041"/>
			<path d="m487.09 266.55s-14.751 12.006-22.394 14.797l-2.419-2.665s12.068-11.409 16.455-17.119l8.358 4.987z" fill="#FCD3C0"/>
			<path d="m464.78 281.32s1.246 4.38 0.354 6.315-2.561-1.554-2.561-1.554-1.224-3.217-0.294-7.396l2.501 2.635z" fill="#FCD3C0"/>
			<path d="m465.68 286.01s-0.99-1.844-3.51-1.498c0 0-0.889-0.485-0.185-1.369 0 0 2.882-0.024 3.83 1.863 1e-3 0 0.411 0.774-0.135 1.004z" fill="#FBB041"/>
		<path d="m457.36 192.23s14.457-2.596 26.616 2.164c0 0-2.411 5.854-13.744 6.234 0 0-10.45-0.802-12.872-8.398z" fill="#577937"/>
		<polygon points="480.36 203.04 459.72 199.98 462.4 171.21 482.44 172.84" fill="#FCD3C0"/>
		<path d="m462.32 171.2l-1.586 17.915c2.956 2.283 6.032 3.654 9.266 3.917 4.006 0.326 7.73-0.465 11.192-2.071l1.247-18.125-20.119-1.636z" fill="#F7C3AC"/>
		<path d="m461.42 103.46c-22.042-4.649-30.318 31.913-26.73 47.352 3.974 18.341 19.105 37.666 35.425 38.993 16.918 1.376 29.704-9.368 39.401-21.831 12.457-16.009 6.309-48.514-14.904-62.121-10.561-6.774-33.192-2.393-33.192-2.393z" fill="#FCD3C0"/>
			<path d="m468.05 151.55c-2.861 1.112-4.956 3.616-3.974 7.075 0.832 2.933 4.691 3.57 6.869 2.424 1.046-0.55 0.681-1.245-0.349-0.704-1.468 0.772-3.7-0.933-4.504-2.127-1.417-2.103-0.187-4.935 1.835-5.721 0.782-0.303 1.382-1.436 0.123-0.947z" fill="#F0B297"/>
				<path d="m445 141.31c-0.861-0.564-1.602-1.216-1.595-2.398 2e-3 -0.446-0.979-0.868-0.982-0.372-9e-3 1.626 1.099 2.597 2.279 3.37 0.558 0.365 0.848-0.239 0.298-0.6z" fill="#F0B297"/>
				<path d="m443.55 142.93c-1.003-0.279-1.857-1.139-2.111-2.243-0.121-0.527-1.073-0.033-0.972 0.406 0.301 1.307 1.264 2.323 2.462 2.655 0.393 0.11 1.151-0.671 0.621-0.818z" fill="#F0B297"/>
					<path d="m457.8 147.55c-0.305 4.441-3.864 7.772-7.95 7.44-4.084-0.332-7.149-4.202-6.843-8.643 0.305-4.441 3.866-7.774 7.95-7.441 4.085 0.331 7.148 4.203 6.843 8.644z" fill="#fff"/>
					<path d="m450.41 155.6c-0.198 0-0.398-8e-3 -0.599-0.024-4.375-0.356-7.668-4.515-7.341-9.272s4.153-8.343 8.528-7.982c2.119 0.172 4.05 1.232 5.437 2.984 1.386 1.751 2.062 3.985 1.904 6.29-0.313 4.537-3.809 8.004-7.929 8.004zm-0.011-16.13c-3.561 0-6.583 2.998-6.853 6.922-0.137 1.991 0.447 3.921 1.646 5.436 1.199 1.514 2.867 2.43 4.7 2.579 3.756 0.312 7.087-2.787 7.371-6.899 0.137-1.991-0.447-3.922-1.646-5.437-1.198-1.514-2.867-2.431-4.7-2.579-0.173-0.015-0.346-0.022-0.518-0.022z" fill="#F0B297"/>
				<path d="m455.57 147.46c-0.213 3.095-2.694 5.42-5.541 5.189-2.852-0.232-4.987-2.932-4.774-6.027 0.213-3.098 2.694-5.421 5.546-5.189 2.846 0.231 4.982 2.929 4.769 6.027z" fill="#6289B4"/>
				<path d="m452.9 147.5c-0.088 1.283-1.207 2.24-2.5 2.134-1.293-0.105-2.271-1.232-2.183-2.515 0.088-1.285 1.209-2.241 2.503-2.136 1.293 0.106 2.268 1.232 2.18 2.517z" fill="#010101"/>
				<path d="m499.42 144.96c0.697 0.2 1.457 0.271 2.134-0.041 0.713-0.328 1.316-1.084 1.554-1.875 7e-3 -0.024-1.008-0.284-1.059-0.112-0.143 0.476-0.399 0.872-0.717 1.231-0.195 0.219-0.427 0.394-0.67 0.544-0.082 0.048-0.166 0.09-0.253 0.127-0.148 0.068-0.446 0.045-0.067 0.154-0.234-0.067-0.48-0.095-0.722-0.102-0.034-2e-3 -0.405 0.016-0.2 0.074z" fill="#F0B297"/>
				<path d="m500.75 147.14c1.309 0.27 2.352-0.278 3.204-1.347 0.402-0.504-0.445-1.204-0.848-0.699-0.624 0.782-1.332 1.189-2.294 0.99-0.679-0.141-0.676 0.928-0.062 1.056z" fill="#F0B297"/>
					<path d="m501.58 151.09c-0.305 4.442-3.865 7.772-7.95 7.44-4.086-0.332-7.15-4.201-6.845-8.643 0.305-4.441 3.865-7.773 7.951-7.44 4.085 0.331 7.15 4.202 6.844 8.643z" fill="#fff"/>
					<path d="m494.19 159.14c-0.201 0-0.403-8e-3 -0.606-0.024-2.12-0.172-4.05-1.231-5.437-2.982s-2.063-3.984-1.905-6.289c0.327-4.756 4.141-8.347 8.529-7.981 2.119 0.172 4.05 1.232 5.436 2.983 1.387 1.751 2.063 3.985 1.905 6.289-0.159 2.304-1.133 4.403-2.744 5.911-1.456 1.362-3.276 2.093-5.178 2.093zm-0.017-16.129c-3.562 0-6.585 2.997-6.855 6.921-0.137 1.991 0.448 3.922 1.646 5.436 1.199 1.513 2.868 2.429 4.701 2.578 1.826 0.147 3.607-0.486 4.999-1.789s2.235-3.118 2.372-5.11c0.137-1.991-0.447-3.921-1.646-5.436-1.199-1.514-2.867-2.43-4.7-2.579-0.173-0.014-0.346-0.021-0.517-0.021z" fill="#F0B297"/>
				<path d="m499.4 150.91c-0.213 3.092-2.692 5.413-5.536 5.182-2.845-0.231-4.979-2.927-4.766-6.019s2.691-5.411 5.536-5.18c2.844 0.231 4.979 2.924 4.766 6.017z" fill="#6289B4"/>
				<path d="m496.74 150.95c-0.088 1.282-1.205 2.236-2.495 2.131-1.293-0.105-2.268-1.229-2.18-2.512s1.207-2.236 2.499-2.131c1.29 0.106 2.264 1.23 2.176 2.512z" fill="#010101"/>
			<path d="m491.28 135.5c4.529 0.372 7.896 2.405 10.736 5.475 1.017 1.097 4.769-0.465 3.543-1.79-3.16-3.412-7.167-5.631-12.167-6.041-1.023-0.084-2.14 0.197-2.781 0.915-0.516 0.575-0.263 1.365 0.669 1.441z" fill="#C27D2B"/>
			<path d="m455.86 130.76c-4.521-0.454-8.156 0.998-11.437 3.603-1.172 0.93-4.628-1.35-3.212-2.474 3.645-2.894 7.943-4.418 12.935-3.917 1.022 0.102 2.08 0.595 2.6 1.443 0.418 0.682 0.046 1.438-0.886 1.345z" fill="#C27D2B"/>
		<path d="m447.64 146.48c-0.067 0.968-0.843 1.694-1.733 1.622s-1.557-0.916-1.491-1.884c0.067-0.968 0.842-1.694 1.732-1.621 0.89 0.072 1.559 0.915 1.492 1.883z" fill="#FDFBE4"/>
		<path d="m447.59 150.44c-0.038 0.551-0.48 0.965-0.987 0.923-0.507-0.041-0.888-0.522-0.85-1.073s0.48-0.965 0.987-0.924c0.507 0.042 0.888 0.523 0.85 1.074z" fill="#FDFBE4"/>
		<path d="m491.53 150.04c-0.067 0.968-0.843 1.694-1.733 1.622s-1.557-0.916-1.491-1.884c0.067-0.968 0.842-1.694 1.732-1.621 0.89 0.072 1.559 0.915 1.492 1.883z" fill="#FDFBE4"/>
		<path d="m491.48 154c-0.038 0.551-0.48 0.965-0.987 0.923-0.507-0.041-0.888-0.522-0.85-1.073s0.48-0.965 0.987-0.924c0.507 0.042 0.887 0.523 0.85 1.074z" fill="#FDFBE4"/>
		<path d="m453.99 111.44s11.553 21.044 57.178 27.725l-0.401-3.818-55.285-25.29-1.492 1.383z" fill="#010101" opacity=".09"/>
		<path d="m440.77 125.44c4.952-8.023 17.281-19.671 25.249-18.448 10.352 1.587 18.431 8.974 21.632 8.257 25.488-5.705 24.849 29.771 23.143 42.166 1.76-3.932 8.587-1.622 11.316-20.718 5.286-37.016-33.502-47.931-47.432-49.04-12.414-0.986-28.537 4.488-38.076 13.616-8.269 7.94-18.894 31.839 0.449 49.078-1e-3 0-2.721-14.477 3.719-24.911z" fill="#E39232"/>
		<path d="m518.92 113.65c-9.31-18.784-33.78-25.145-44.238-25.978-5.435-0.432-11.581 0.375-17.574 2.185 3.695-0.622 7.324-0.842 10.68-0.576 10.458 0.833 34.929 7.194 44.238 25.978 0.015 0.021 24.009 32.759 2.916 66.938 0 0-9.437 9.445-25.273 14.088 19.959-3.469 32.167-15.697 32.167-15.697 21.093-34.178-2.901-66.917-2.916-66.938z" fill="#010101" opacity=".13"/>
		<path d="m448.1 98.499c0.765 4.783 7.693 16.295 18.936 23.336 5.443 3.411 11.162 6.691 16.853 8.619 6.504 2.203 11.514 4.021 19.648 5.752 1.971 0.42 9.041 2.027 10.172 0.148 2.013-2.873-6.021-15.292-7.497-17.407-7.187-10.193-18.314-14.932-29.237-18.31-5.234-1.45-13.573-4.15-17.849-4.019-5.163 0.158-11.026 1.881-11.026 1.881z" fill="#E39232"/>
		<path d="m507.95 136.8c5.736 2.15 15.034-2.481 19.931-6.124 6.197-4.546 8.789-10.734 11.76-17.899-8.813 11.067-23.787 8.166-34.597 3.248-2.988-1.59-6.144-5.213-9.362-3.455-3.81 1.374-3.986 8.43-3.292 11.853 1.41 6.512 6.944 9.403 12.366 11.585l3.194 0.792z" fill="#E39232"/>
		<path d="m498.82 265.07s-7.998-35.422-7.407-57.256c0 0-1.114-5.297 3.375-6.522 0 0-4.545-6.433-10.815-6.893 0 0-6.391 6.182-14.158 5.478-7.777-0.56-12.458-7.642-12.458-7.642-6.224-1.134-12.618 3.83-12.618 3.83 4.271 1.938 2.02 7.089 2.02 7.089-2.403 21.687-14.546 56.5-14.546 56.5 13.852 5.054 30.132 5.683 33.094 5.757 2.939 0.406 19.124 2.416 33.513-0.341z" fill="#8EC641"/>
		<path d="m452.31 226.76s12.995 5.684 29.849 2.427c0 0 0.15 18.671-16.221 17.336 0 0-15.964-0.72-13.628-19.763z" fill="#B5E3F3"/>
			<path d="m460.33 194.9c-0.086 1.254-1.091 2.194-2.244 2.1s-2.018-1.186-1.932-2.44 1.091-2.194 2.244-2.1c1.154 0.094 2.019 1.186 1.932 2.44z" fill="#FCEE23"/>
			<path d="m458.54 192.48c0.547 0.451 0.882 1.182 0.827 1.982-0.086 1.254-1.091 2.194-2.244 2.1-0.047-4e-3 -0.091-0.019-0.137-0.026 0.31 0.256 0.688 0.424 1.105 0.457 1.153 0.094 2.158-0.847 2.244-2.1 0.083-1.202-0.713-2.246-1.795-2.413z" fill="#010101" opacity=".09"/>
			<path d="m457.53 194.16c-0.093 0.283-0.335 0.447-0.542 0.367s-0.3-0.374-0.207-0.657 0.335-0.447 0.542-0.367 0.3 0.374 0.207 0.657z" fill="#fff"/>
			<path d="m460.61 190.87c-0.066 0.966-0.841 1.691-1.729 1.618s-1.555-0.914-1.489-1.88 0.841-1.691 1.729-1.618c0.889 0.072 1.555 0.913 1.489 1.88z" fill="#FCEE23"/>
			<path d="m459.23 189c0.422 0.348 0.679 0.911 0.637 1.528-0.066 0.966-0.841 1.691-1.729 1.618-0.036-3e-3 -0.07-0.015-0.106-0.02 0.239 0.197 0.53 0.326 0.851 0.353 0.889 0.072 1.663-0.652 1.729-1.618 0.065-0.928-0.548-1.732-1.382-1.861z" fill="#010101" opacity=".09"/>
			<path d="m458.45 190.3c-0.071 0.218-0.259 0.344-0.418 0.283-0.16-0.062-0.231-0.288-0.16-0.506s0.258-0.344 0.418-0.283 0.231 0.288 0.16 0.506z" fill="#fff"/>
			<path d="m462.16 198.88c-0.086 1.254-1.091 2.194-2.244 2.1s-2.018-1.186-1.932-2.44 1.091-2.194 2.244-2.1 2.018 1.186 1.932 2.44z" fill="#FCEE23"/>
			<path d="m460.36 196.46c0.547 0.451 0.882 1.182 0.827 1.982-0.086 1.254-1.091 2.194-2.244 2.1-0.047-4e-3 -0.091-0.019-0.137-0.026 0.31 0.256 0.688 0.424 1.105 0.457 1.153 0.094 2.158-0.847 2.244-2.1 0.082-1.202-0.713-2.246-1.795-2.413z" fill="#010101" opacity=".09"/>
			<path d="m459.36 198.14c-0.093 0.283-0.335 0.447-0.542 0.367s-0.3-0.374-0.207-0.657 0.335-0.447 0.542-0.367 0.3 0.374 0.207 0.657z" fill="#fff"/>
			<path d="m464.9 202.48c-0.086 1.254-1.091 2.194-2.244 2.1s-2.018-1.186-1.932-2.44 1.091-2.194 2.244-2.1 2.018 1.187 1.932 2.44z" fill="#FCEE23"/>
			<path d="m463.11 200.06c0.547 0.451 0.882 1.182 0.827 1.982-0.086 1.254-1.091 2.194-2.244 2.1-0.047-4e-3 -0.091-0.019-0.137-0.026 0.31 0.256 0.688 0.424 1.105 0.457 1.153 0.094 2.158-0.847 2.244-2.1 0.082-1.202-0.713-2.246-1.795-2.413z" fill="#010101" opacity=".09"/>
			<path d="m462.1 201.74c-0.093 0.283-0.335 0.447-0.542 0.367s-0.3-0.374-0.207-0.657 0.335-0.447 0.542-0.367 0.3 0.374 0.207 0.657z" fill="#fff"/>
			<path d="m467.6 205.89c-0.086 1.254-1.091 2.194-2.244 2.1s-2.018-1.186-1.932-2.44 1.091-2.194 2.244-2.1c1.154 0.094 2.019 1.186 1.932 2.44z" fill="#FCEE23"/>
			<path d="m465.81 203.47c0.547 0.451 0.882 1.182 0.827 1.982-0.086 1.254-1.091 2.194-2.244 2.1-0.047-4e-3 -0.091-0.019-0.137-0.026 0.31 0.256 0.688 0.424 1.105 0.458 1.153 0.094 2.158-0.847 2.244-2.1 0.083-1.203-0.713-2.247-1.795-2.414z" fill="#010101" opacity=".09"/>
			<path d="m464.8 205.15c-0.093 0.283-0.335 0.447-0.542 0.367s-0.3-0.374-0.207-0.657 0.335-0.447 0.542-0.367c0.207 0.081 0.3 0.375 0.207 0.657z" fill="#fff"/>
			<path d="m472.37 207.34c-0.104 1.519-1.322 2.658-2.719 2.545-1.397-0.114-2.445-1.437-2.34-2.956 0.104-1.519 1.322-2.658 2.719-2.545s2.444 1.437 2.34 2.956z" fill="#FCEE23"/>
			<path d="m470.19 204.4c0.663 0.547 1.068 1.432 1.002 2.402-0.105 1.519-1.322 2.658-2.719 2.545-0.057-5e-3 -0.11-0.023-0.166-0.032 0.376 0.31 0.833 0.513 1.339 0.554 1.397 0.114 2.614-1.026 2.719-2.545 0.1-1.456-0.864-2.721-2.175-2.924z" fill="#010101" opacity=".09"/>
			<path d="m468.97 206.44c-0.112 0.342-0.406 0.541-0.657 0.444s-0.363-0.454-0.251-0.796 0.406-0.541 0.657-0.444 0.363 0.453 0.251 0.796z" fill="#fff"/>
			<path d="m475.55 205.95c-0.072 1.05-0.914 1.838-1.88 1.759s-1.69-0.994-1.618-2.044 0.914-1.838 1.88-1.759 1.691 0.994 1.618 2.044z" fill="#FCEE23"/>
			<path d="m474.04 203.92c0.458 0.378 0.739 0.99 0.693 1.661-0.072 1.05-0.914 1.838-1.88 1.759-0.04-3e-3 -0.076-0.016-0.115-0.022 0.26 0.214 0.576 0.355 0.926 0.383 0.966 0.079 1.807-0.709 1.88-1.759 0.069-1.007-0.597-1.882-1.504-2.022z" fill="#010101" opacity=".09"/>
			<path d="m473.2 205.33c-0.078 0.237-0.281 0.374-0.454 0.307s-0.251-0.314-0.174-0.55c0.078-0.237 0.281-0.374 0.454-0.307 0.174 0.067 0.251 0.313 0.174 0.55z" fill="#fff"/>
			<path d="m479.18 204.55c-0.086 1.254-1.091 2.194-2.244 2.1s-2.018-1.186-1.932-2.44 1.091-2.194 2.244-2.1 2.018 1.186 1.932 2.44z" fill="#FCEE23"/>
			<path d="m477.38 202.12c0.547 0.451 0.882 1.182 0.827 1.982-0.086 1.254-1.091 2.194-2.244 2.1-0.047-4e-3 -0.091-0.019-0.137-0.026 0.31 0.256 0.688 0.424 1.105 0.458 1.153 0.094 2.158-0.847 2.244-2.1 0.083-1.203-0.713-2.247-1.795-2.414z" fill="#010101" opacity=".09"/>
			<path d="m476.38 203.81c-0.093 0.283-0.335 0.447-0.542 0.367s-0.3-0.374-0.207-0.657 0.335-0.447 0.542-0.367c0.206 0.08 0.299 0.374 0.207 0.657z" fill="#fff"/>
			<path d="m482.76 202.11c-0.103 1.503-1.307 2.629-2.689 2.517s-2.418-1.421-2.315-2.924c0.103-1.502 1.307-2.629 2.689-2.517 1.381 0.113 2.418 1.422 2.315 2.924z" fill="#FCEE23"/>
			<path d="m480.61 199.21c0.656 0.541 1.057 1.417 0.991 2.376-0.103 1.502-1.307 2.629-2.689 2.517-0.057-5e-3 -0.109-0.023-0.164-0.032 0.372 0.307 0.824 0.508 1.324 0.548 1.382 0.112 2.586-1.015 2.689-2.517 0.099-1.441-0.854-2.692-2.151-2.892z" fill="#010101" opacity=".09"/>
			<path d="m479.4 201.22c-0.111 0.339-0.402 0.536-0.65 0.439-0.248-0.096-0.359-0.449-0.248-0.787 0.111-0.339 0.402-0.536 0.65-0.44 0.248 0.097 0.359 0.449 0.248 0.788z" fill="#fff"/>
			<path d="m484.88 198.45c-0.086 1.254-1.091 2.194-2.244 2.1s-2.018-1.186-1.932-2.44 1.091-2.194 2.244-2.1c1.154 0.094 2.018 1.187 1.932 2.44z" fill="#FCEE23"/>
			<path d="m483.08 196.03c0.547 0.451 0.882 1.182 0.827 1.982-0.086 1.254-1.091 2.194-2.244 2.1-0.047-4e-3 -0.091-0.019-0.137-0.026 0.31 0.256 0.687 0.424 1.105 0.457 1.153 0.094 2.158-0.847 2.244-2.1 0.082-1.202-0.713-2.245-1.795-2.413z" fill="#010101" opacity=".09"/>
			<path d="m482.08 197.71c-0.093 0.283-0.335 0.447-0.542 0.367s-0.3-0.374-0.207-0.657c0.092-0.283 0.335-0.447 0.542-0.367s0.3 0.374 0.207 0.657z" fill="#fff"/>
			<path d="m484.5 194.24c-0.073 1.055-0.918 1.847-1.889 1.768s-1.698-0.998-1.626-2.054c0.073-1.055 0.918-1.847 1.889-1.768s1.699 0.998 1.626 2.054z" fill="#FCEE23"/>
			<path d="m482.99 192.2c0.461 0.38 0.742 0.995 0.696 1.668-0.073 1.055-0.918 1.847-1.889 1.768-0.04-3e-3 -0.076-0.016-0.115-0.022 0.261 0.215 0.579 0.357 0.93 0.385 0.97 0.079 1.816-0.713 1.889-1.768 0.069-1.012-0.6-1.89-1.511-2.031z" fill="#010101" opacity=".09"/>
			<path d="m482.15 193.62c-0.078 0.238-0.282 0.376-0.457 0.309-0.174-0.067-0.252-0.315-0.174-0.553s0.282-0.376 0.457-0.309c0.174 0.067 0.252 0.315 0.174 0.553z" fill="#fff"/>
			<path d="m453.18 162.2s13.933 17.101 34.331 2.714c0 0-6.893 11.428-19.014 10.471-9.889-0.782-15.317-13.185-15.317-13.185z" fill="#010101"/>
				<defs>
					<path id="ac" d="m453.18 162.2s13.933 17.101 34.331 2.714c0 0-6.893 11.428-19.014 10.471-9.889-0.782-15.317-13.185-15.317-13.185z"/>
				</defs>
				<clipPath id="t">
					<use overflow="visible" xlink:href="#ac"/>
				</clipPath>
				<path d="m463.5 174.1s3.946-2.238 6.121-0.413c0 0 3.997-1.36 5.513 1.333-1e-3 -1e-3 -6.897 2.662-11.634-0.92z" clip-path="url(#t)" fill="#ED583A"/>
			<path d="m466.7 180.14c1.863-1.066 3.985-1.105 5.874-0.093 0.572 0.307 1.079-0.625 0.504-0.933-2.221-1.19-4.686-1.164-6.878 0.091-0.567 0.324-0.067 1.259 0.5 0.935z" fill="#F0B297"/>
		<path d="m511.03 137.33s9.941-0.983 16.299-6.251l0.659 2.17s-7.939 7.169-16.758 5.88l-0.2-1.799z" fill="#C27D2B"/>
</svg>
